<?xml version="1.0" encoding="utf-8"?>
<svg version="1.0" xmlns="http://www.w3.org/2000/svg" width="300.000000pt" height="254.000000pt" viewBox="0 0 300.000000 254.000000" preserveAspectRatio="xMidYMid meet" xmlns:bx="https://boxy-svg.com">
  <defs>
    <linearGradient gradientUnits="userSpaceOnUse" x1="154.359" y1="17.419" x2="154.359" y2="245.892" id="gradient-1" spreadMethod="pad">
      <stop offset="0" style="stop-color: rgb(95.294% 41.569% 70.196%)"/>
      <stop offset="1" style="stop-color: rgb(65.487% 10.641% 43.912%)"/>
    </linearGradient>
    <filter id="drop-shadow-filter-0" bx:preset="drop-shadow 1 10 -10 20 0.4 #c40045e2" color-interpolation-filters="sRGB" x="-50%" y="-50%" width="200%" height="200%">
      <feGaussianBlur in="SourceAlpha" stdDeviation="20"/>
      <feOffset dx="10" dy="-10"/>
      <feComponentTransfer result="offsetblur">
        <feFuncA id="spread-ctrl" type="linear" slope="0.8"/>
      </feComponentTransfer>
      <feFlood flood-color="#c40045e2"/>
      <feComposite in2="offsetblur" operator="in"/>
      <feMerge>
        <feMergeNode/>
        <feMergeNode in="SourceGraphic"/>
      </feMerge>
    </filter>
  </defs>
  <path stroke-width="0" d="M 123.791 17.673 C 129.008 16.343 135.927 20.584 141.103 22.245 C 145.468 23.646 151.935 24.575 153.469 25.767 C 154.083 26.244 153.643 26.152 154.369 26.666 C 156.672 28.3 167.828 35.318 174.154 38.058 C 179.762 40.487 186.56 40.831 190.343 42.855 C 193.097 44.328 194.621 46.069 196.039 47.951 C 197.351 49.693 196.548 52.144 198.737 53.647 C 202.305 56.098 212.997 55.197 219.721 57.844 C 226.708 60.594 231.984 65.871 236.809 71.259 C 241.4 76.386 243.848 84.159 248.501 89.022 C 253.316 94.054 258.05 93.509 263.715 100.263 C 271.413 109.44 280.701 135.051 284.1 146.205 C 286.338 153.552 287.055 155.201 287.697 161.494 C 288.439 168.759 290.31 177.998 289.571 186.452 C 288.792 195.357 286.77 206.017 284.775 214.032 C 283.067 220.89 279.425 226.407 276.905 231.27 C 274.778 235.375 273.113 237.201 269.41 240.038 C 264.846 243.535 257.376 243.135 251.349 244.685 C 246.07 246.042 243.884 246.159 237.109 245.509 C 226.49 244.49 202.157 242.265 192.141 240.713 C 186.186 239.79 183.403 241.16 179.55 240.113 C 175.832 239.103 172.904 235.709 169.358 234.717 C 165.902 233.751 163.752 235.561 158.566 234.117 C 149.085 231.478 126.437 220.9 114.198 213.732 C 103.898 207.7 93.252 199.848 88.716 194.846 C 86.044 191.899 87.043 189.687 84.819 187.351 C 82.004 184.394 75.135 182.473 71.928 179.257 C 69.054 176.375 69.179 173.059 65.932 169.364 C 61.29 164.08 52.327 158.746 45.847 150.328 C 38.005 140.14 27.942 121.734 23.963 110.306 C 20.958 101.679 20.451 95.356 19.766 88.122 C 19.108 81.178 18.382 73.255 19.766 67.737 C 20.913 63.162 22.781 59.005 26.061 56.645 C 29.533 54.147 35.364 53.805 40.451 53.647 C 45.912 53.477 52.214 54.296 57.838 56.045 C 63.615 57.842 73.418 60.238 77.249 64.814 C 104.172 96.968 131.638 95.458 98.085 56.57 C 95.35 53.401 99.416 49.5 101.007 48.251 C 101.848 47.59 102.424 48.496 103.106 47.651 C 104.59 45.812 105.437 36.942 107.303 32.962 C 108.871 29.616 110.471 27.308 112.998 24.868 C 115.815 22.149 119.333 18.809 123.791 17.673 Z" style="stroke-width: 2px; fill: url(&quot;#gradient-1&quot;); paint-order: fill; fill-rule: nonzero; filter: url(&quot;#drop-shadow-filter-0&quot;);"/>
  <g transform="matrix(0.861433, 0, 0, -0.642595, -885.304414, 1237.227095)" fill="#c40045e2" stroke="#c40045e2" style="">
    <path d="M1134 1904 c3 -9 6 -28 7 -42 l1 -27 10 28 c11 31 16 32 50 15 52 -28 112 -84 129 -122 21 -46 26 -155 8 -187 -8 -16 -19 -20 -52 -18 -104 6 -201 100 -229 219 -14 60 -5 76 35 61 36 -14 34 -5 -3 14 -39 20 -47 19 -54 -10 -11 -42 31 -147 81 -204 63 -73 123 -99 210 -92 26 2 46 62 39 122 -12 116 -60 181 -173 234 -61 29 -67 30 -59 9z"/>
  </g>
</svg>