<?xml version="1.0" encoding="utf-8"?>
<svg version="1.0" xmlns="http://www.w3.org/2000/svg" width="300.000000pt" height="254.000000pt" viewBox="0 0 300.000000 254.000000" preserveAspectRatio="xMidYMid meet">
  <path stroke-width="0" d="M 229.164 63.915 C 233.546 63.381 238.866 62.614 242.954 63.915 C 246.934 65.18 246.777 69.662 249.325 72.908 C 251.874 76.156 251.063 79.541 251.873 83.776 C 252.705 88.122 251.934 99.52 251.123 103.936 C 250.32 108.31 250.327 109.851 249.325 114.279 C 248.294 118.831 251.613 119.341 252.248 124.171 C 252.912 129.231 261.087 133.836 264.014 137.586 C 266.677 140.999 266.138 143.893 268.436 146.355 C 270.209 148.256 270.881 149.873 271.434 152.351 C 272.117 155.415 272.77 159.729 271.434 163.743 C 269.781 168.707 264.781 175.636 260.342 179.632 C 256.193 183.366 251.103 182.702 244.078 185.178 C 233.016 189.077 211.333 194.904 194.314 196.719 C 176.974 198.569 158.181 200.025 142.826 198.218 C 129.914 196.698 120.368 193.554 112.249 192.447 C 106.935 191.723 101.194 189.721 97.259 189.824 C 93.402 189.925 90.607 190.911 85.868 190.424 C 79.289 189.748 66.462 186.744 60.686 184.428 C 56.807 182.873 54.523 181.925 52.592 179.332 C 50.441 176.444 48.527 171.103 48.994 167.34 C 49.457 163.612 42.068 169.916 44.048 167.715 C 45.402 166.209 38.988 168.64 40.451 167.265 C 42.521 165.319 56.223 159.476 60.386 155.948 C 67.591 149.841 103.115 142.775 115.846 137.586 C 127.631 132.783 184.767 100.33 194.914 92.168 C 203.339 85.392 226.483 65.428 235.459 62.191 C 239.675 60.67 219.393 68.1 222.12 65.339 C 226.374 61.03 208.528 81.501 213.651 76.881 C 217.548 73.366 213.223 74.138 217.173 72.533 C 221.025 70.969 224.97 64.425 229.164 63.915 Z" style="stroke-width: 2px; fill: rgb(251, 0, 47); filter: none;"/>
  <g transform="matrix(1.04855, 0, 0, -0.873192, -2350.650475, 1468.723075)" fill="red" stroke="red" style="filter: none;">
    <path d="M 2435 1593 C 2417 1566 2417 1565 2436 1582 C 2454 1597 2456 1597 2470 1582 C 2484 1567 2481.784 1567.429 2484.784 1584.429 C 2488.784 1601.429 2476 1619 2459 1620 C 2455 1620 2444 1608 2435 1593 Z" style=""/>
    <path d="M 2480 1532 C 2480 1528 2485 1519 2491 1513 C 2509 1495 2451.148 1467.296 2401.148 1467.296 C 2331.148 1467.296 2267 1488 2303 1504 C 2309 1507 2302 1508 2285 1504 C 2234 1494 2235 1482 2291 1466 C 2360 1445 2436 1446 2480 1468 C 2521 1488 2528 1510 2500 1528 C 2489 1535 2480 1537 2480 1532 Z" style=""/>
  </g>
</svg>