<?xml version="1.0" encoding="utf-8"?>
<svg version="1.0" xmlns="http://www.w3.org/2000/svg" width="300.000000pt" height="254.000000pt" viewBox="0 0 300.000000 254.000000" preserveAspectRatio="xMidYMid meet">
  <defs>
    <radialGradient gradientUnits="userSpaceOnUse" cx="2295.175" cy="764.081" r="201.794" id="gradient-0">
      <stop offset="0" style="stop-color: rgb(57.255% 20% 52.157%)"/>
      <stop offset="1" style="stop-color: rgb(41.026% 0% 37.035%)"/>
    </radialGradient>
    <radialGradient gradientUnits="userSpaceOnUse" cx="1815.229" cy="694.451" r="220.18" id="gradient-1">
      <stop offset="0" style="stop-color: rgb(57.255% 20% 52.157%)"/>
      <stop offset="1" style="stop-color: rgb(41.026% 0% 37.035%)"/>
    </radialGradient>
    <radialGradient gradientUnits="userSpaceOnUse" cx="2262.5" cy="470.643" r="187.5" id="gradient-2">
      <stop offset="0" style="stop-color: rgb(57.255% 20% 52.157%)"/>
      <stop offset="1" style="stop-color: rgb(41.026% 0% 37.035%)"/>
    </radialGradient>
    <radialGradient gradientUnits="userSpaceOnUse" cx="1937.638" cy="430.513" r="166.5" id="gradient-3">
      <stop offset="0" style="stop-color: rgb(57.255% 20% 52.157%)"/>
      <stop offset="1" style="stop-color: rgb(41.026% 0% 37.035%)"/>
    </radialGradient>
    <radialGradient gradientUnits="userSpaceOnUse" cx="2007.95" cy="591.052" r="40.902" id="gradient-4">
      <stop offset="0" style="stop-color: rgb(57.255% 20% 52.157%)"/>
      <stop offset="1" style="stop-color: rgb(41.026% 0% 37.035%)"/>
    </radialGradient>
    <radialGradient gradientUnits="userSpaceOnUse" cx="2029.681" cy="915.543" r="149.681" id="gradient-5">
      <stop offset="0" style="stop-color: rgb(57.255% 20% 52.157%)"/>
      <stop offset="1" style="stop-color: rgb(41.026% 0% 37.035%)"/>
    </radialGradient>
  </defs>
  <g transform="matrix(0.325191, 0, 0, -0.274579, -515.076923, 308.766033)" fill="red" stroke="red" style="">
    <path d="M 2255 891 C 2209 870 2149 813 2113 757 C 2084 711 2087 702 2123 730 C 2137 741 2153 750 2160 750 C 2178 750 2167 717 2148 714 C 2139 713 2124 707 2113 701 C 2098 691 2101 690 2128 696 C 2159 701 2161 700 2155 681 C 2150 663 2153 660 2177 660 C 2210 660 2297 638 2327 622 C 2355 607 2413 645 2463 713 C 2506 770 2508 801 2470 810 C 2450 815 2444 823 2442 850 C 2440 869 2432 891 2423 898 C 2398 916 2301 912 2255 891 Z M 2345.453 808.665 C 2359.453 804.665 2272.5 842.705 2272.5 827.705 C 2272.5 814.705 2298.25 796.888 2312.25 783.888 C 2325.25 770.888 2341.86 771.357 2341.86 764.357 C 2341.86 742.357 2418.078 836.853 2382.078 812.853 C 2351.078 791.853 2370.891 774.476 2313.891 785.476 C 2215.891 805.476 2264.812 702.295 2264.812 738.295 C 2264.812 756.295 2317.735 745.541 2309.735 754.541 C 2281.735 785.541 2197.469 712.248 2294.469 744.248 C 2316.469 751.248 2319.453 815.665 2345.453 808.665 Z" style="stroke: none; fill-rule: nonzero; paint-order: fill; fill: url(&quot;#gradient-0&quot;);"/>
    <path d="M 1661 818 C 1636 805 1610 786 1603 774 C 1591 756 1592 750 1610 727 C 1630 702 1630 699 1615 669 C 1600 641 1600 637 1615 620 C 1639 593 1708 563 1763 555 C 1804 549 1815 551 1833 568 C 1845 579 1875 600 1900 614 C 1925 628 1937 640 1928 640 C 1919 640 1909 648 1907 658 C 1903 671 1902 670 1901 653 C 1900 639 1884 620 1854 599 C 1813 571 1829.812 686.915 1787.812 692.915 C 1744.812 698.915 1785.734 683.692 1783.734 696.692 C 1783.734 699.692 1788.187 653.898 1786.187 693.898 C 1783.187 761.898 1706.75 643.524 1731.75 659.524 C 1762.75 679.524 1754.047 609.648 1833.047 588.648 C 1894.047 572.648 1946 768 1934 748 C 1929 741 1925 721 1925 703 C 1925 666 1945 657 2000 669 L 2035 677 L 1983 696 C 1930 715 1912 740 1950 740 C 1961 740 1970 736 1970 732 C 1970 725 1989 712 2033 692 C 2038 689 2035 699 2026 713 C 1987 771 1878 823 1770 834 C 1714 840 1699 838 1661 818 Z" style="stroke: none; fill-rule: nonzero; paint-order: fill; fill: url(&quot;#gradient-1&quot;);"/>
    <path d="M 2099 640 C 2138.469 629 2123.082 579.794 2129.938 581.787 C 2136.794 583.78 2186.493 562.307 2185.812 554.501 C 2185.131 546.695 2233.297 505.737 2240.297 514.737 C 2251.297 530.737 2081.14 581.052 2143.14 563.052 C 2189.14 549.052 2135.328 523.318 2162.328 497.318 C 2233.328 426.318 2316.563 420.122 2271.563 396.122 C 2258.563 389.122 2379 339 2372 328 C 2365 318 2367.281 481.414 2352.281 481.414 C 2316.281 481.414 2314.531 443.978 2287.531 473.978 C 2265.531 498.978 2175.844 529.715 2186.844 557.715 C 2184.966 569.784 2087.896 630.887 2084 627 C 2082.999 626.001 2090 600 2100 570 C 2110 540 2122 487 2126 452 C 2131 399 2137 386 2163 364 C 2205 328 2257 304 2318 291 C 2390 276 2392 276 2388 308 C 2385 333 2387 335 2418 332 L 2450 330 L 2450 382 C 2450 463 2401 553 2337 594 C 2319 606 2211 633 2100 655 L 2075 660 L 2099 640 Z" style="stroke: none; fill-rule: nonzero; paint-order: fill; fill: url(&quot;#gradient-2&quot;);"/>
    <path d="M 1935 609 C 1784 521 1747 451 1785 322 C 1806 252 1834 239 1904 266 C 1915 270 1923 264 1930 246 C 1935 231 1946 217 1954 214 C 1979 205 2049 249 2077 292 C 2101 327 2105 344 2104 399 C 2104 435 2095 501 2085 545 L 2066 625 L 2060 580 C 2056 545 2035.953 556.112 2073 518 C 2079.416 465.271 2039.676 642.355 2007.031 560.834 C 1953.613 427.436 1950.764 537.666 1907.516 526.677 L 1971 235 L 1991.328 294.122 C 1975.328 309.122 1995.656 400.099 1961.656 402.099 C 1917.656 405.099 1783.247 321.055 1811 314 C 1957.032 276.88 1900.703 287.392 1970.703 355.392 C 2009.25 392.837 2005.875 330.7 2033.875 327.7 C 2039.875 326.7 2017.297 542.511 2017.297 548.511 C 2017.297 553.511 1956 600 1963 600 C 1971 600 1987 611 2000 625 C 2033 660 2016 656 1935 609 Z" style="stroke: none; fill-rule: nonzero; paint-order: fill; fill: url(&quot;#gradient-3&quot;);"/>
    <path d="M2018 623 c-16 -16 -28 -34 -28 -40 0 -7 -8 -14 -17 -16 -10 -2 -7 -3 6 -2 14 2 32 -5 40 -14 9 -9 13 -12 9 -8 -3 5 0 25 8 44 23 54 14 70 -18 36z" style="stroke: none; fill-rule: nonzero; paint-order: fill; fill: url(&quot;#gradient-4&quot;);"/>
    <path d="M 2042 1098 C 2022 1078 2020 1078 1996 1093 C 1960 1117 1948 1114 1923 1077 C 1890 1028 1880 994 1880 930 C 1880 863 1893 820 1913 820 C 1921 820 1946 806 1968 790 C 2000 767 2010 764 2010 775 C 2010 784 2046.848 861.869 2020.848 872.869 C 1991.848 885.869 2074.791 911.057 2068.791 928.057 C 2052.791 969.057 2029.221 912.017 2054.221 952.017 C 2074.221 985.017 1905.675 943.255 1968.675 941.255 C 2046.675 940.255 2036.743 975.457 2027.071 893.017 C 2012.15 765.837 2150.685 819.143 2094 820 C 2081.001 820.197 2068 815 2065 809 C 2061 803 2050.464 826.475 2043.464 828.475 C 2034.464 832.475 2034 797 2036 767 C 2042 704 2058 699 2066 759 C 2071 794 2077 810 2087 810 C 2102 810 2102 800 2085 755 C 2081 744 2096 763 2118 798 C 2141 832 2164 860 2170 860 C 2184 860 2182 919 2166 973 C 2152 1020 2097 1105 2075 1114 C 2068 1116 2053 1109 2042 1098 Z" style="stroke: none; fill-rule: nonzero; paint-order: fill; fill: url(&quot;#gradient-5&quot;);"/>
  </g>
</svg>