<?xml version="1.0" encoding="utf-8"?>
<svg version="1.0" xmlns="http://www.w3.org/2000/svg" width="300.000000pt" height="254.000000pt" viewBox="0 0 300.000000 254.000000" preserveAspectRatio="xMidYMid meet">
  <path stroke-width="0" d="M 168.908 26.441 C 171.187 26.112 173.302 26.233 175.503 27.041 C 177.998 27.958 181.385 30.532 182.997 32.137 C 184.149 33.284 183.838 34.237 185.096 35.435 C 187.048 37.295 192.07 38.195 194.989 41.731 C 198.851 46.409 202.598 56.329 204.582 63.315 C 206.39 69.684 209.493 73.98 211.102 80.778 C 212.988 88.745 214.247 98.826 215.974 108.283 C 217.807 118.327 218.414 129.178 217.173 140.66 C 215.796 153.401 211.095 169.413 206.98 181.43 C 203.343 192.052 198.623 202.381 194.389 209.61 C 191.114 215.203 188.583 218.729 184.496 222.501 C 180.18 226.484 174.847 230.305 168.908 232.693 C 162.561 235.245 155.038 238.087 147.323 236.89 C 138.25 235.484 125.127 226.731 117.944 221.901 C 112.605 218.312 109.47 215.823 106.253 211.409 C 102.748 206.601 101.27 197.954 98.159 193.721 C 95.715 190.397 92.77 190.147 90.065 186.826 C 86.48 182.426 82.461 175.627 79.272 168.24 C 75.504 159.511 71.963 148.263 69.679 137.062 C 67.222 125.007 66.095 108.827 65.482 98.09 C 65.005 89.728 64.127 83.066 65.482 77.105 C 66.659 71.929 71.426 68.053 72.078 63.915 C 72.643 60.322 69.54 56.976 70.279 53.722 C 71.064 50.262 74.094 45.874 77.174 43.829 C 80.211 41.812 83.553 40.492 88.566 41.431 C 96.62 42.939 115.691 57.481 122.141 59.418 C 125.22 60.342 125.571 60.279 128.137 59.418 C 132.323 58.013 140.912 52.453 145.225 48.326 C 148.96 44.751 151.157 38.825 153.319 36.634 C 154.609 35.327 155.472 35.53 156.617 34.536 C 158.045 33.295 159.186 30.765 161.113 29.439 C 163.206 28 166.407 26.803 168.908 26.441 Z" style="stroke-width: 2px; filter: none; fill: rgb(197, 50, 67);"/>
  <g transform="matrix(0.601598, 0, 0, -0.697592, -647.907799, 931.046603)" fill="red" stroke="red" style="filter: none;">
    <path d="M1320 1295 c-19 -31 -50 -48 -50 -27 0 4 -13 15 -29 25 -36 21 -47 10 -60 -59 -18 -92 21 -189 93 -233 65 -40 113 -25 148 48 45 93 34 185 -30 254 -34 35 -46 34 -72 -8z m72 -22 c53 -64 49 -175 -8 -243 -29 -34 -53 -37 -95 -13 -65 38 -108 146 -87 219 10 37 20 40 57 20 29 -16 58 -10 72 15 12 24 41 24 61 2z" style="stroke: none; fill: rgb(197, 50, 67);"/>
  </g>
</svg>