<?xml version="1.0" encoding="utf-8"?>
<svg version="1.0" xmlns="http://www.w3.org/2000/svg" width="300.000000pt" height="254.000000pt" viewBox="0 0 300.000000 254.000000" preserveAspectRatio="xMidYMid meet">
  <g transform="matrix(0.660668, 0, 0, -0.617334, -1493.816826, 848.673736)" fill="red" stroke="red" style="">
    <path d="M 2550 1323 C 2453 1303 2336 1225 2293 1153 C 2279 1129 2269 1108 2271 1106 C 2286 1092 2410 1067 2481 1063 C 2549 1058 2573 1061 2601 1075 C 2645 1097 2678 1128 2697 1163 C 2717 1202 2708 1217 2666 1222 C 2622 1227 2620 1222 2660 1209 C 2661.29 1233.616 2500.034 1294.116 2513.617 1243.694 C 2525.337 1200.189 2631.156 1235.76 2575.556 1246.035 C 2522.455 1255.848 2560.761 1246.111 2548.761 1258.111 C 2530.761 1276.111 2508.532 1172.61 2570.532 1219.61 C 2602.532 1243.61 2504.645 1203.516 2510.645 1203.516 C 2517.645 1203.516 2570.378 1231.975 2584.378 1239.975 C 2598.378 1246.975 2530.466 1261.654 2558.88 1251.977 C 2600.98 1237.639 2653.807 1314.746 2632 1285 C 2620.627 1269.486 2630 1266 2651 1287 C 2664 1299 2671 1312 2667 1316 C 2659 1325 2581 1329 2550 1323 Z" style="fill: rgb(255, 88, 117); stroke: none;"/>
  </g>
</svg>