 <svg version="1.0" xmlns="http://www.w3.org/2000/svg"  width="300.000000pt" height="254.000000pt" viewBox="0 0 300.000000 254.000000"  preserveAspectRatio="xMidYMid meet">  <g transform="translate(0.000000,254.000000) scale(0.100000,-0.100000)" fill="red" stroke="red"> 
 
 <path d="M1374 2301 c-30 -13 -38 -29 -36 -71 2 -26 -3 -42 -18 -55 -28 -25 -25 -42 11 -76 39 -36 63 -36 130 -1 40 20 66 27 104 25 l50 -1 -30 15 c-16 9 -33 21 -37 27 -5 7 -8 6 -8 -4 0 -16 -110 -70 -143 -70 -46 0 -83 50 -56 77 6 6 13 28 16 49 6 53 36 78 82 69 57 -11 172 -95 129 -95 -6 0 6 -16 27 -35 22 -19 41 -32 43 -30 12 11 -50 94 -100 133 -60 47 -119 62 -164 43z"/> 
 <path d="M1843 2230 c-47 -11 -118 -55 -138 -87 -18 -27 -18 -28 1 -13 10 8 23 21 27 28 12 19 39 15 35 -5 -2 -10 -8 -18 -13 -18 -11 -1 -75 -34 -75 -39 0 -1 22 -3 49 -4 57 -1 139 -38 169 -77 27 -34 58 -31 99 10 33 33 34 35 18 64 -10 21 -13 43 -9 70 6 36 4 41 -22 54 -38 19 -101 27 -141 17z m129 -37 c20 -23 30 -127 15 -145 -35 -41 -44 -42 -99 -5 -29 19 -70 42 -91 51 -34 14 -37 18 -27 36 6 11 8 29 5 39 -8 26 31 39 116 40 51 1 69 -3 81 -16z"/> 
 <path d="M1609 2407 c-15 -13 -34 -47 -44 -76 l-17 -53 28 -24 c16 -14 38 -29 49 -33 16 -7 21 -19 22 -46 1 -38 8 -53 20 -42 10 10 12 97 2 91 -13 -8 -72 23 -86 44 -15 26 -6 64 25 102 26 30 30 31 77 25 60 -8 85 -36 92 -99 5 -37 2 -44 -22 -60 -15 -10 -32 -15 -39 -13 -6 3 -12 -3 -12 -12 -1 -9 -5 -25 -9 -36 -6 -14 4 -9 31 16 21 20 47 39 58 43 16 5 18 14 14 60 -6 71 -35 112 -85 119 -21 3 -47 8 -58 11 -15 5 -29 0 -46 -17z"/> 
 <path d="M1507 2095 c-74 -26 -117 -87 -117 -164 0 -40 11 -51 51 -51 10 0 31 -13 46 -30 14 -16 34 -30 44 -30 10 0 38 24 63 53 46 51 67 99 65 147 l-1 25 -10 -27 c-5 -16 -16 -28 -24 -28 -18 0 -18 18 1 36 8 9 15 23 15 31 0 14 -2 14 -19 -1 -13 -12 -21 -14 -26 -6 -8 13 -8 12 20 29 18 11 17 12 -10 6 -16 -3 -41 -9 -54 -12 -17 -4 -22 -2 -19 8 3 8 18 17 34 20 27 6 27 7 4 7 -14 1 -42 -5 -63 -13z m18 -25 c3 -5 17 -10 29 -10 28 0 52 -26 48 -51 -2 -10 6 -23 17 -28 17 -10 18 -15 10 -40 -13 -37 -55 -80 -86 -87 -17 -5 -31 0 -46 14 -12 11 -34 25 -50 31 -15 6 -30 18 -34 27 -21 55 83 190 112 144z"/> 
 <path d="M1728 2063 c17 -9 32 -21 32 -25 0 -5 5 -6 10 -3 39 24 114 -40 130 -111 9 -39 2 -50 -61 -97 -25 -19 -31 -19 -94 7 l-40 17 30 -25 c16 -14 43 -31 59 -38 27 -11 31 -9 55 20 14 18 34 32 44 32 28 0 41 40 28 88 -16 57 -65 105 -134 130 -68 26 -108 29 -59 5z"/>
 <path d="M1706 2035 c17 -26 12 -61 -7 -50 -6 4 -8 13 -6 19 3 7 1 19 -4 27 -6 10 -9 5 -9 -17 0 -17 -5 -46 -11 -63 -9 -24 -9 -35 0 -44 8 -8 11 -3 11 19 0 21 9 36 35 57 l34 27 -21 25 c-28 32 -43 32 -22 0z"/>
 
 </g> </svg> 