 <svg version="1.0" xmlns="http://www.w3.org/2000/svg"  width="300.000000pt" height="254.000000pt" viewBox="0 0 300.000000 254.000000"  preserveAspectRatio="xMidYMid meet">  <g transform="translate(0.000000,254.000000) scale(0.100000,-0.100000)" fill="red" stroke="red"> 
 
 <path d="M1134 1904 c3 -9 6 -28 7 -42 l1 -27 10 28 c11 31 16 32 50 15 52 -28 112 -84 129 -122 21 -46 26 -155 8 -187 -8 -16 -19 -20 -52 -18 -104 6 -201 100 -229 219 -14 60 -5 76 35 61 36 -14 34 -5 -3 14 -39 20 -47 19 -54 -10 -11 -42 31 -147 81 -204 63 -73 123 -99 210 -92 26 2 46 62 39 122 -12 116 -60 181 -173 234 -61 29 -67 30 -59 9z"/> 
 
 </g> </svg> 