 <svg version="1.0" xmlns="http://www.w3.org/2000/svg"  width="300.000000pt" height="254.000000pt" viewBox="0 0 300.000000 254.000000"  preserveAspectRatio="xMidYMid meet">  <g transform="translate(0.000000,254.000000) scale(0.100000,-0.100000)" fill="red" stroke="red"> 
 
 <path d="M658 1893 c-21 -21 -44 -55 -53 -76 -14 -34 -14 -40 0 -67 19 -36 29 -40 14 -6 -18 39 -3 88 39 128 35 35 40 36 97 34 55 -3 60 -5 72 -32 15 -36 17 -158 3 -185 -6 -11 -7 -19 -2 -19 26 0 30 159 6 220 -17 41 -31 49 -52 28 -9 -9 -18 -9 -37 0 -39 18 -48 15 -87 -25z"/>
 <path d="M395 1803 c-31 -8 -45 -23 -45 -49 0 -16 -8 -28 -25 -36 -39 -18 -32 -51 23 -108 34 -35 56 -50 73 -49 20 1 21 2 4 6 -32 9 -82 52 -98 86 -15 30 -15 33 7 57 13 14 27 35 30 47 15 47 108 47 186 1 l35 -22 -19 22 c-30 34 -119 58 -171 45z"/>
 <path d="M747 1670 c11 -11 8 -19 -15 -44 l-27 -29 38 28 c21 15 36 28 35 29 -2 1 -12 8 -23 16 -17 12 -18 12 -8 0z"/>
 <path d="M689 1661 c0 -3 -3 -19 -5 -34 -6 -36 10 -28 24 11 8 23 7 29 -4 29 -8 0 -14 -3 -15 -6z"/> 
 <path d="M624 1646 c5 -14 3 -17 -11 -11 -12 4 -7 -5 11 -24 17 -17 31 -31 33 -31 5 0 -26 73 -34 79 -3 4 -3 -2 1 -13z"/> 
 <path d="M920 1650 c107 -11 147 -37 136 -87 -6 -27 -6 -27 9 -9 20 27 19 39 -7 64 -34 31 -72 42 -141 40 l-62 -1 65 -7z"/>
 <path d="M768 1620 c-20 -11 -40 -24 -43 -30 -4 -6 12 -1 34 11 23 12 44 25 47 30 7 12 5 11 -38 -11z"/> 
 <path d="M562 1601 c-6 -4 9 -11 33 -17 48 -11 52 -2 6 14 -15 5 -33 7 -39 3z"/>
 <path d="M525 1560 l-30 -8 35 0 c19 0 44 3 55 8 18 8 18 9 -5 8 -14 0 -38 -4 -55 -8z"/> 
 <path d="M720 1560 c-12 -8 -11 -10 7 -10 12 0 28 -2 36 -5 8 -4 14 0 14 10 0 17 -34 20 -57 5z"/> 
 <path d="M402 1525 c-65 -35 -111 -110 -112 -177 0 -27 4 -38 15 -38 18 0 18 5 4 31 -21 41 21 117 94 170 41 30 40 37 -1 14z"/>
 <path d="M610 1499 c-6 -11 -10 -27 -8 -36 2 -10 9 -2 20 21 18 37 7 52 -12 15z"/> 
 <path d="M650 1501 c-14 -26 -13 -51 1 -27 9 15 13 16 20 5 6 -10 9 -6 9 14 0 31 -15 36 -30 8z"/> 
 <path d="M744 1492 c16 -18 32 -30 34 -27 3 3 15 -3 26 -12 19 -16 19 -16 -1 7 -12 14 -37 34 -55 44 l-33 19 29 -31z"/> 
 <path d="M1048 1501 c-7 -53 -114 -94 -171 -66 -30 15 -30 15 -12 -5 22 -24 45 -25 111 -5 62 18 101 55 86 81 -9 16 -10 16 -14 -5z"/> 
 <path d="M850 1409 c0 -4 7 -24 16 -45 20 -47 15 -121 -10 -160 -16 -24 -22 -26 -64 -21 -25 3 -56 0 -69 -6 -57 -26 -112 41 -114 138 -1 54 -2 57 -9 25 -24 -97 65 -218 128 -175 15 11 27 12 55 3 30 -9 40 -8 61 5 46 31 60 144 26 207 -11 19 -19 32 -20 29z"/> 
 <path d="M539 1330 c-20 -20 -55 -42 -79 -50 -23 -8 -38 -16 -31 -18 20 -7 119 46 137 72 24 38 14 36 -27 -4z"/> 
 <path d="M343 1285 c2 -27 6 -30 37 -32 35 -2 35 -2 8 9 -14 6 -31 21 -37 32 -10 19 -10 18 -8 -9z"/> 

 </g> </svg> 