 <svg version="1.0" xmlns="http://www.w3.org/2000/svg"  width="300.000000pt" height="254.000000pt" viewBox="0 0 300.000000 254.000000"  preserveAspectRatio="xMidYMid meet">  <g transform="translate(0.000000,254.000000) scale(0.100000,-0.100000)" fill="red" stroke="red"> 
 
 <path d="M2435 1593 c-18 -27 -18 -28 1 -11 18 15 20 15 34 0 14 -15 15 -15 18 2 4 17 -12 35 -29 36 -4 0 -15 -12 -24 -27z"/> 
 <path d="M2480 1532 c0 -4 5 -13 11 -19 18 -18 -47 -53 -97 -53 -70 0 -127 28 -91 44 6 3 -1 4 -18 0 -51 -10 -50 -22 6 -38 69 -21 145 -20 189 2 41 20 48 42 20 60 -11 7 -20 9 -20 4z"/> 

 </g> </svg> 