 <svg version="1.0" xmlns="http://www.w3.org/2000/svg"  width="300.000000pt" height="254.000000pt" viewBox="0 0 300.000000 254.000000"  preserveAspectRatio="xMidYMid meet">  <g transform="translate(0.000000,254.000000) scale(0.100000,-0.100000)" fill="red" stroke="red"> 
 
 <path fill="gray" stroke="gray"  d="M1320 1295 c-19 -31 -50 -48 -50 -27 0 4 -13 15 -29 25 -36 21 -47 10 -60 -59 -18 -92 21 -189 93 -233 65 -40 113 -25 148 48 45 93 34 185 -30 254 -34 35 -46 34 -72 -8z m72 -22 c53 -64 49 -175 -8 -243 -29 -34 -53 -37 -95 -13 -65 38 -108 146 -87 219 10 37 20 40 57 20 29 -16 58 -10 72 15 12 24 41 24 61 2z"/> 
 
 </g> </svg> 