 <svg version="1.0" xmlns="http://www.w3.org/2000/svg"  width="300.000000pt" height="254.000000pt" viewBox="0 0 300.000000 254.000000"  preserveAspectRatio="xMidYMid meet">  <g transform="translate(0.000000,254.000000) scale(0.100000,-0.100000)" fill="red" stroke="red"> 
 
 <path fill="pink" stroke="pink"  d="M2550 1323 c-97 -20 -214 -98 -257 -170 -14 -24 -24 -45 -22 -47 15 -14 139 -39 210 -43 68 -5 92 -2 120 12 44 22 77 53 96 88 20 39 11 54 -31 59 -44 5 -46 0 -6 -13 35 -13 36 -20 13 -60 -22 -38 -105 -79 -157 -79 -54 0 -198 28 -210 40 -18 18 25 79 87 126 32 24 64 44 70 44 7 0 24 6 38 14 14 7 50 13 80 12 48 -1 54 -3 51 -21 -3 -19 -2 -19 19 2 13 12 20 25 16 29 -8 9 -86 13 -117 7z"/> 
  
 </g> </svg> 