 <svg version="1.0" xmlns="http://www.w3.org/2000/svg"  width="300.000000pt" height="254.000000pt" viewBox="0 0 300.000000 254.000000"  preserveAspectRatio="xMidYMid meet">  <g transform="translate(0.000000,254.000000) scale(0.100000,-0.100000)" fill="red" stroke="red"> 
 
 <path fill="red" stroke="red"  d="M608 898 c-20 -7 -28 -17 -28 -34 0 -16 -8 -28 -25 -36 -37 -17 -31 -36 29 -94 52 -51 123 -84 178 -84 18 0 18 2 -4 32 -18 26 -23 29 -26 15 -8 -38 -106 -3 -147 53 -14 19 -25 39 -25 44 0 6 17 30 39 54 31 34 45 42 73 42 43 0 95 -51 131 -130 28 -59 37 -53 12 7 -34 80 -103 144 -155 142 -14 0 -37 -5 -52 -11z"/> 

 </g> </svg> 