 <svg version="1.0" xmlns="http://www.w3.org/2000/svg"  width="300.000000pt" height="254.000000pt" viewBox="0 0 300.000000 254.000000"  preserveAspectRatio="xMidYMid meet">  <g transform="translate(0.000000,254.000000) scale(0.100000,-0.100000)" fill="red" stroke="red"> 
 
 <path fill="blue" stroke="blue"  d="M2255 891 c-46 -21 -106 -78 -142 -134 -29 -46 -26 -55 10 -27 14 11 30 20 37 20 18 0 7 -33 -12 -36 -9 -1 -24 -7 -35 -13 -15 -10 -12 -11 15 -5 31 5 33 4 27 -15 -5 -18 -2 -21 22 -21 33 0 120 -22 150 -38 28 -15 86 23 136 91 43 57 45 88 7 97 -20 5 -26 13 -28 40 -2 19 -10 41 -19 48 -25 18 -122 14 -168 -7z m143 -7 c14 -4 22 -14 22 -29 0 -13 11 -33 25 -46 13 -13 25 -30 25 -37 0 -22 -51 -88 -87 -112 -31 -21 -37 -22 -94 -11 -98 20 -109 26 -109 62 0 18 -7 40 -15 49 -28 31 38 92 135 124 22 7 72 7 98 0z"/> 
 <path fill="blue" stroke="blue"  d="M1661 818 c-25 -13 -51 -32 -58 -44 -12 -18 -11 -24 7 -47 20 -25 20 -28 5 -58 -15 -28 -15 -32 0 -49 24 -27 93 -57 148 -65 41 -6 52 -4 70 13 12 11 42 32 67 46 25 14 37 26 28 26 -9 0 -19 8 -21 18 -4 13 -5 12 -6 -5 -1 -14 -17 -33 -47 -54 -41 -28 -50 -30 -92 -24 -43 6 -121 41 -123 54 0 3 -2 38 -4 78 -3 68 -2 73 23 89 31 20 132 20 211 -1 61 -16 77 -27 65 -47 -5 -7 -9 -27 -9 -45 0 -37 20 -46 75 -34 l35 8 -52 19 c-53 19 -71 44 -33 44 11 0 20 -4 20 -8 0 -7 19 -20 63 -40 5 -3 2 7 -7 21 -39 58 -148 110 -256 121 -56 6 -71 4 -109 -16z"/> 
 <path fill="blue" stroke="blue"  d="M2099 640 c13 -11 32 -20 42 -20 10 0 19 -5 19 -12 0 -7 6 -4 13 5 11 16 16 15 78 -3 46 -14 77 -31 104 -57 71 -71 98 -170 53 -194 -13 -7 -29 -20 -36 -31 -7 -10 -25 -18 -40 -18 -36 0 -141 51 -168 81 -22 25 -49 154 -38 182 4 12 -34 62 -42 54 -1 -1 6 -27 16 -57 10 -30 22 -83 26 -118 5 -53 11 -66 37 -88 42 -36 94 -60 155 -73 72 -15 74 -15 70 17 -3 25 -1 27 30 24 l32 -2 0 52 c0 81 -49 171 -113 212 -18 12 -126 39 -237 61 l-25 5 24 -20z"/>
 <path fill="blue" stroke="blue"  d="M1935 609 c-151 -88 -188 -158 -150 -287 21 -70 49 -83 119 -56 11 4 19 -2 26 -20 5 -15 16 -29 24 -32 25 -9 95 35 123 78 24 35 28 52 27 107 0 36 -9 102 -19 146 l-19 80 -6 -45 c-4 -35 -1 -49 13 -62 13 -14 17 -35 17 -86 0 -85 -28 -144 -82 -175 l-37 -22 -23 22 c-16 15 -39 23 -73 25 -44 3 -52 6 -64 32 -37 79 -20 159 50 227 38 38 49 43 77 40 6 -1 12 3 12 9 0 5 6 10 13 10 8 0 24 11 37 25 33 35 16 31 -65 -16z"/>
 <path fill="blue" stroke="blue"  d="M2018 623 c-16 -16 -28 -34 -28 -40 0 -7 -8 -14 -17 -16 -10 -2 -7 -3 6 -2 14 2 32 -5 40 -14 9 -9 13 -12 9 -8 -3 5 0 25 8 44 23 54 14 70 -18 36z"/> 
 <path fill="blue" stroke="blue"  d="M2042 1098 c-20 -20 -22 -20 -46 -5 -36 24 -48 21 -73 -16 -33 -49 -43 -83 -43 -147 0 -67 13 -110 33 -110 8 0 33 -14 55 -30 32 -23 42 -26 42 -15 0 9 -20 25 -46 36 -29 13 -49 30 -55 47 -16 41 -5 145 20 185 20 33 22 34 85 32 78 -1 95 -14 126 -91 34 -84 12 -164 -46 -164 -13 0 -26 -5 -29 -11 -4 -6 -13 -8 -20 -6 -9 4 -11 -6 -9 -36 6 -63 22 -68 30 -8 5 35 11 51 21 51 15 0 15 -10 -2 -55 -4 -11 11 8 33 43 23 34 46 62 52 62 14 0 12 59 -4 113 -14 47 -69 132 -91 141 -7 2 -22 -5 -33 -16z"/> 

 </g> </svg> 