<?xml version="1.0" encoding="utf-8"?>
<svg version="1.0" xmlns="http://www.w3.org/2000/svg" width="300.000000pt" height="254.000000pt" viewBox="0 0 300.000000 254.000000" preserveAspectRatio="xMidYMid meet">
  <path stroke-width="0" d="M 51.917 53.047 C 56.123 52.365 58.967 51.952 62.709 53.047 C 67.106 54.334 71.16 59.045 76.499 61.441 C 82.542 64.154 87.453 64.863 94.111 68.412 C 101.187 72.183 109.961 79.617 113.448 85.049 C 116.091 89.168 118.82 97.381 115.472 95.766 C 101.069 88.819 76.007 81.357 109.775 112.329 C 116.946 118.906 78.631 117.014 58.288 130.991 C 49.14 137.276 36.285 137.946 29.133 136.388 C 22.964 135.044 17.087 130.488 13.845 127.094 C 11.339 124.473 10.374 121.842 9.648 118.7 C 8.862 115.305 8.138 111.973 9.648 107.308 C 11.923 100.279 20.381 88.008 19.84 79.728 C 19.283 71.2 27.078 63.479 32.731 59.043 C 37.964 54.936 46.523 53.923 51.917 53.047 Z M 141.552 9.803 C 148.721 8.592 163.909 8.735 171.531 11.003 C 177.465 12.768 182.859 17.774 185.021 19.696 C 186.062 20.622 185.734 20.938 186.52 21.795 C 187.735 23.118 190.285 23.994 192.216 26.891 C 195.331 31.566 200.354 44.445 201.809 50.274 C 202.772 54.134 202.753 55.893 202.409 59.268 C 201.995 63.321 200.528 69.555 198.811 73.058 C 197.442 75.852 196.667 77.514 193.715 79.353 C 189.222 82.153 171.717 92.384 170.032 85.2 C 166.304 69.307 164.168 51.257 153.393 87.148 C 152.243 90.98 143.815 82.761 142.452 81.452 C 141.783 80.811 142.261 80.39 141.552 79.953 C 140.214 79.128 136.363 79.833 133.158 78.154 C 128.516 75.722 119.94 68.327 116.67 64.064 C 114.357 61.049 113.654 58.453 113.073 55.67 C 112.528 53.059 112.393 51.364 113.073 47.876 C 114.153 42.331 118.026 30.274 121.467 24.493 C 124.168 19.954 127.3 17.072 130.76 14.6 C 134.033 12.262 136.615 10.638 141.552 9.803 Z M 251.948 82.876 C 259.843 82.557 264.91 81.892 269.935 83.476 C 274.398 84.882 277.953 87.547 281.027 90.97 C 284.357 94.68 287.214 100.09 288.821 105.36 C 290.494 110.843 290.468 120.948 290.62 123.347 C 290.671 124.157 290.67 124.002 290.62 124.546 C 290.542 125.395 289.922 127.305 290.02 128.143 C 290.086 128.705 290.594 128.886 290.62 129.343 C 290.65 129.867 289.991 130.617 290.02 131.141 C 290.046 131.598 290.522 131.931 290.62 132.34 C 290.713 132.732 290.684 133.055 290.62 133.54 C 290.534 134.187 290.106 135.29 290.02 135.938 C 289.956 136.423 290.065 136.399 290.02 137.137 C 289.907 138.994 290.141 145.623 288.821 149.128 C 287.561 152.475 286.048 155.529 282.526 157.822 C 277.749 160.932 266.14 163.756 260.342 163.818 C 256.083 163.863 254.154 162.772 250.149 160.82 C 244.544 158.089 238.329 150.304 230.139 145.531 C 220.131 139.699 199.298 134.901 193.49 128.743 C 189.93 124.969 189.798 120.632 189.893 117.351 C 189.972 114.586 197.142 112.62 197.761 109.781 C 198.498 106.407 192.392 101.528 193.49 98.165 C 194.471 95.16 197.717 96.564 199.71 94.792 C 201.477 93.222 203.199 90.461 206.83 89.547 C 214.784 87.543 240.296 83.346 251.948 82.876 Z M 193.265 153.1 C 197.277 152.41 207.809 151.363 213.5 153.775 C 221.441 157.141 235.179 167.162 241.38 174.46 C 246.418 180.389 248.482 186.791 250.374 193.047 C 252.171 198.988 254.189 204.933 252.772 211.034 C 251.157 217.992 245.387 226.98 239.282 232.319 C 233.124 237.704 222.811 241.369 215.899 243.111 C 210.33 244.515 206.232 244.442 200.91 243.711 C 194.926 242.889 189.87 240.51 183.971 237.715 C 178.199 234.98 171.689 228.24 167.709 223.849 C 163.915 219.664 159.465 214.836 157.666 209.61 C 155.884 204.438 155.631 201.345 156.542 196.045 C 157.504 190.441 159.988 184.144 164.336 179.557 C 168.871 174.771 179.746 170.143 184.271 165.917 C 188.204 162.244 189.905 166.784 192.965 164.042 C 195.456 161.811 190.025 153.658 193.265 153.1 Z M 84.818 137.362 C 89.286 133.607 93.527 138.948 97.409 142.158 C 100.69 144.871 105.96 141.958 110 143.358 C 114.273 144.838 118.987 147.105 122.291 151.152 C 126.191 155.929 126.991 167.637 130.685 171.537 C 132.649 173.611 133.99 173.711 135.482 175.435 C 137.227 177.451 139.387 180.481 140.278 183.229 C 141.14 185.887 141.694 188.798 140.878 191.623 C 139.935 194.885 135.675 200.147 133.983 201.516 C 133.129 202.207 132.698 201.387 131.884 202.115 C 130.248 203.579 127.784 210.528 125.589 212.908 C 123.944 214.69 122.158 214.705 120.493 216.205 C 118.548 217.957 117.446 221.16 114.797 223.1 C 111.655 225.402 106.708 227.581 102.206 228.496 C 97.538 229.446 91.5 229.711 87.217 228.496 C 83.333 227.396 78.697 223.817 77.324 222.201 C 76.623 221.376 77.627 220.939 76.724 220.103 C 74.438 217.984 58.721 212.747 56.339 211.109 C 55.53 210.552 56.049 210.467 55.44 209.91 C 54.143 208.724 49.283 206.844 47.345 204.214 C 45.296 201.434 44.095 195.16 43.748 193.422 C 43.607 192.715 43.684 192.707 43.748 192.223 C 43.834 191.575 44.262 190.472 44.348 189.824 C 44.412 189.339 44.273 189.407 44.348 188.625 C 44.558 186.433 44.435 178.892 46.746 173.036 C 49.801 165.296 58.352 150.889 63.833 146.355 C 67.423 143.386 72.77 144.119 74.326 143.058 C 75.071 142.549 74.511 142.119 75.225 141.559 C 76.687 140.413 82.153 139.602 84.818 137.362 Z" style="stroke-width: 2px; paint-order: fill; fill-rule: evenodd; fill: rgb(246, 127, 159);"/>
  <g transform="matrix(0.412159, 0, 0, -0.392677, -534.718098, 953.87241)" fill="red" stroke="red" style="">
    <path d="M1843 2230 c-47 -11 -118 -55 -138 -87 -18 -27 -18 -28 1 -13 10 8 23 21 27 28 12 19 39 15 35 -5 -2 -10 -8 -18 -13 -18 -11 -1 -75 -34 -75 -39 0 -1 22 -3 49 -4 57 -1 139 -38 169 -77 27 -34 58 -31 99 10 33 33 34 35 18 64 -10 21 -13 43 -9 70 6 36 4 41 -22 54 -38 19 -101 27 -141 17z m129 -37 c20 -23 30 -127 15 -145 -35 -41 -44 -42 -99 -5 -29 19 -70 42 -91 51 -34 14 -37 18 -27 36 6 11 8 29 5 39 -8 26 31 39 116 40 51 1 69 -3 81 -16z"/>
    <path d="M1609 2407 c-15 -13 -34 -47 -44 -76 l-17 -53 28 -24 c16 -14 38 -29 49 -33 16 -7 21 -19 22 -46 1 -38 8 -53 20 -42 10 10 12 97 2 91 -13 -8 -72 23 -86 44 -15 26 -6 64 25 102 26 30 30 31 77 25 60 -8 85 -36 92 -99 5 -37 2 -44 -22 -60 -15 -10 -32 -15 -39 -13 -6 3 -12 -3 -12 -12 -1 -9 -5 -25 -9 -36 -6 -14 4 -9 31 16 21 20 47 39 58 43 16 5 18 14 14 60 -6 71 -35 112 -85 119 -21 3 -47 8 -58 11 -15 5 -29 0 -46 -17z"/>
    <path d="M1507 2095 c-74 -26 -117 -87 -117 -164 0 -40 11 -51 51 -51 10 0 31 -13 46 -30 14 -16 34 -30 44 -30 10 0 38 24 63 53 46 51 67 99 65 147 l-1 25 -10 -27 c-5 -16 -16 -28 -24 -28 -18 0 -18 18 1 36 8 9 15 23 15 31 0 14 -2 14 -19 -1 -13 -12 -21 -14 -26 -6 -8 13 -8 12 20 29 18 11 17 12 -10 6 -16 -3 -41 -9 -54 -12 -17 -4 -22 -2 -19 8 3 8 18 17 34 20 27 6 27 7 4 7 -14 1 -42 -5 -63 -13z m18 -25 c3 -5 17 -10 29 -10 28 0 52 -26 48 -51 -2 -10 6 -23 17 -28 17 -10 18 -15 10 -40 -13 -37 -55 -80 -86 -87 -17 -5 -31 0 -46 14 -12 11 -34 25 -50 31 -15 6 -30 18 -34 27 -21 55 83 190 112 144z"/>
    <path d="M1374 2301 c-30 -13 -38 -29 -36 -71 2 -26 -3 -42 -18 -55 -28 -25 -25 -42 11 -76 39 -36 63 -36 130 -1 40 20 66 27 104 25 l50 -1 -30 15 c-16 9 -33 21 -37 27 -5 7 -8 6 -8 -4 0 -16 -110 -70 -143 -70 -46 0 -83 50 -56 77 6 6 13 28 16 49 6 53 36 78 82 69 57 -11 172 -95 129 -95 -6 0 6 -16 27 -35 22 -19 41 -32 43 -30 12 11 -50 94 -100 133 -60 47 -119 62 -164 43z"/>
    <path d="M1728 2063 c17 -9 32 -21 32 -25 0 -5 5 -6 10 -3 39 24 114 -40 130 -111 9 -39 2 -50 -61 -97 -25 -19 -31 -19 -94 7 l-40 17 30 -25 c16 -14 43 -31 59 -38 27 -11 31 -9 55 20 14 18 34 32 44 32 28 0 41 40 28 88 -16 57 -65 105 -134 130 -68 26 -108 29 -59 5z"/>
    <path d="M1706 2035 c17 -26 12 -61 -7 -50 -6 4 -8 13 -6 19 3 7 1 19 -4 27 -6 10 -9 5 -9 -17 0 -17 -5 -46 -11 -63 -9 -24 -9 -35 0 -44 8 -8 11 -3 11 19 0 21 9 36 35 57 l34 27 -21 25 c-28 32 -43 32 -22 0z"/>
  </g>
</svg>