<?xml version="1.0" encoding="utf-8"?>
<svg version="1.0" xmlns="http://www.w3.org/2000/svg" width="300.000000pt" height="254.000000pt" viewBox="0 0 300.000000 254.000000" preserveAspectRatio="xMidYMid meet" xmlns:bx="https://boxy-svg.com">
  <defs>
    <radialGradient gradientUnits="userSpaceOnUse" cx="152.645" cy="127.694" r="138.985" id="gradient-0">
      <stop offset="0" style="stop-color: rgb(98.039% 29.02% 65.882%)"/>
      <stop offset="1" style="stop-color: rgb(67.589% 0% 41.159%)"/>
    </radialGradient>
    <filter id="point-light-filter-0" bx:preset="point-light 1 0.5 0.5 0.5 22 2 0.12 0.34 #ffffff" primitiveUnits="objectBoundingBox" color-interpolation-filters="sRGB" x="-50%" y="-50%" width="200%" height="200%">
      <feSpecularLighting result="specular-lighting" lighting-color="#ffffff" specularConstant="2" specularExponent="22">
        <fePointLight x="0.5" y="0.5" z="0.5"/>
      </feSpecularLighting>
      <feDiffuseLighting result="diffuse-lighting" lighting-color="#ffffff" diffuseConstant="0.12">
        <fePointLight x="0.5" y="0.5" z="0.5"/>
      </feDiffuseLighting>
      <feMerge result="lighting">
        <feMergeNode in="diffuse-lighting"/>
        <feMergeNode in="specular-lighting"/>
      </feMerge>
      <feComposite in="SourceGraphic" in2="lighting" operator="arithmetic" k1="1" k2="0.34" k3="0" k4="0"/>
    </filter>
  </defs>
  <path stroke-width="0" d="M 187.794 11.91 C 191.19 11.22 192.212 10.225 195.438 11.385 C 198.426 12.46 197.444 9.609 199.186 12.21 C 201.054 15 205.82 19.261 205.556 22.628 C 205.304 25.835 207.624 26.05 207.355 30.122 C 206.964 36.044 207.309 47.965 208.105 53.956 C 208.631 57.916 208.225 61.031 207.355 64.073 C 206.37 67.514 209.653 71.949 207.055 74.191 C 204.825 76.115 204.689 83.045 201.884 83.558 C 199.933 83.915 203.785 86.209 205.95 87.648 C 206.049 87.612 206.171 87.594 206.319 87.596 C 206.271 87.666 206.237 87.742 206.214 87.825 C 206.294 87.879 206.371 87.932 206.444 87.982 C 206.522 87.865 206.619 87.749 206.714 87.642 C 206.955 87.689 207.241 87.775 207.58 87.906 C 209.432 88.624 209.582 89.08 209.355 89.324 C 209.536 89.281 209.765 89.233 210.053 89.18 C 212.611 88.706 214.762 91.924 216.948 91.203 C 219.442 90.381 221.182 90.585 224.443 91.353 C 228.443 92.295 233.319 91.162 237.633 92.178 C 241.497 93.087 244.51 92.714 249.025 93.077 C 254.832 93.544 264.279 94.686 269.261 96.524 C 272.742 97.809 274.572 99.4 276.755 100.272 C 278.442 100.946 277.579 101.859 279.378 102.669 C 282.026 103.862 287.392 109.706 289.645 113.312 C 292.343 117.632 291.579 122.368 291.369 128.152 C 291.175 133.5 291.093 133.348 289.046 137.145 C 287.378 140.24 286.471 141.117 285.373 142.541 C 284.811 143.27 280.535 145.129 279.978 145.914 C 278.81 147.559 278.362 150.186 275.706 152.36 C 273.221 154.393 271.718 156.184 268.436 156.931 C 264.675 157.787 259.241 160.55 255.245 161.428 C 251.494 162.253 248.521 162.443 245.052 163.226 C 241.72 163.979 239.235 166.505 235.235 166.224 C 230.196 165.871 216.748 158.368 213.126 158.955 C 211.038 159.294 210.735 162.775 209.978 163.976 C 209.184 165.234 212.193 170.989 212.751 172.82 C 213.475 175.195 214.976 177.63 216.499 181.363 C 218.619 186.559 221.779 195.989 222.344 202.798 C 222.847 208.858 221.594 214.66 220.845 219.961 C 220.13 225.027 218.595 228.135 216.648 231.728 C 215.097 234.59 212.558 238.848 209.828 240.646 C 206.367 242.927 203.505 242.464 198.062 243.42 C 191.896 244.502 182.946 241.723 177.826 241.546 C 174.377 241.426 170.618 242.807 167.408 242.82 C 163.109 242.838 158.767 247.87 153.094 246.267 C 146.207 244.322 135.84 236.951 131.21 231.578 C 127.511 227.285 126.888 223.86 125.214 217.788 C 122.888 209.347 124.876 186.885 122.741 183.537 C 121.995 182.367 113.832 181.772 112.849 182.188 C 111.059 182.945 110.425 186.581 107.152 189.458 C 102.978 193.127 98.473 197.833 91.864 201.6 C 84.077 206.039 73.604 211.152 65.408 213.666 C 58.755 215.706 53.792 217.999 48.17 217.188 C 42.722 216.402 38.824 214.317 35.879 211.418 C 33.681 209.254 33.07 206.725 31.382 205.421 C 29.85 204.239 26.78 201.137 24.711 200.325 C 22.375 199.407 20.024 198.168 18.191 195.978 C 16.292 193.708 14.827 193.532 13.994 190.207 C 13.023 186.328 14.438 182.12 14.894 178.291 C 15.263 175.189 15.717 173.885 17.292 171.246 C 19.224 168.01 21.053 161.011 23.587 158.73 C 25.363 157.132 26.192 157.296 28.084 155.432 C 31.268 152.298 35.685 143.54 40.975 139.544 C 46.274 135.541 54.949 134.951 57.238 131.449 C 58.867 128.958 64.04 123.336 62.035 120.882 C 59.34 117.582 53.903 118.716 50.867 116.385 C 49.102 115.03 42.755 111.976 41.424 110.615 C 39.673 108.824 36.172 107.539 34.305 105.668 C 32.79 104.151 29.883 100.696 28.384 99.297 C 26.632 97.662 25.043 96.868 22.988 94.8 C 19.842 91.634 18.131 88.875 17.892 84.683 C 17.641 80.3 24.274 76.17 25.911 72.392 C 27.356 69.056 29.465 68.038 31.831 66.172 C 33.921 64.523 31.504 61.644 33.48 59.801 C 35.837 57.603 36.946 51.812 39.176 49.608 C 40.962 47.843 42.007 47.33 45.172 46.61 C 50.747 45.343 63.635 43.823 72.752 45.411 C 82.227 47.062 92.555 54.007 98.309 53.056 C 102.028 52.442 122.486 72.619 125.514 70.743 C 128.945 68.616 121.432 49.062 124.014 46.909 C 130.05 41.876 124.876 39.993 125.963 37.466 C 127.017 35.02 129.115 33.392 130.311 32.296 C 130.958 31.702 130.881 32.639 131.435 32.146 C 132.225 31.441 130.974 30.125 132.259 29.223 C 133.801 28.139 136.46 24.808 138.554 23.078 C 141.461 20.675 144.883 16.632 147.623 14.234 C 149.495 12.595 150.667 12.295 153.019 11.835 C 156.202 11.213 162.574 8.49 164.486 8.837 C 165.266 8.979 164.881 9.357 165.685 9.437 C 167.768 9.644 170.497 10.429 172.58 10.636 C 173.383 10.716 177.973 10.551 178.651 10.486 C 180.128 10.344 184.653 12.548 187.794 11.91 Z M 206.714 87.642 C 206.565 87.613 206.434 87.598 206.319 87.596 C 206.421 87.445 206.586 87.322 206.831 87.231 C 207.297 87.059 207.018 87.299 206.714 87.642 Z" style="stroke-width: 2px; fill-rule: evenodd; fill-opacity: 0.86; fill: url(&quot;#gradient-0&quot;); filter: url(&quot;#point-light-filter-0&quot;);"/>
  <g transform="matrix(0.357458, 0, 0, -0.31762, -93.399234, 616.502647)" fill="red" stroke="red" style="">
    <path d="M658 1893 c-21 -21 -44 -55 -53 -76 -14 -34 -14 -40 0 -67 19 -36 29 -40 14 -6 -18 39 -3 88 39 128 35 35 40 36 97 34 55 -3 60 -5 72 -32 15 -36 17 -158 3 -185 -6 -11 -7 -19 -2 -19 26 0 30 159 6 220 -17 41 -31 49 -52 28 -9 -9 -18 -9 -37 0 -39 18 -48 15 -87 -25z"/>
    <path d="M395 1803 c-31 -8 -45 -23 -45 -49 0 -16 -8 -28 -25 -36 -39 -18 -32 -51 23 -108 34 -35 56 -50 73 -49 20 1 21 2 4 6 -32 9 -82 52 -98 86 -15 30 -15 33 7 57 13 14 27 35 30 47 15 47 108 47 186 1 l35 -22 -19 22 c-30 34 -119 58 -171 45z"/>
    <path d="M747 1670 c11 -11 8 -19 -15 -44 l-27 -29 38 28 c21 15 36 28 35 29 -2 1 -12 8 -23 16 -17 12 -18 12 -8 0z"/>
    <path d="M689 1661 c0 -3 -3 -19 -5 -34 -6 -36 10 -28 24 11 8 23 7 29 -4 29 -8 0 -14 -3 -15 -6z"/>
    <path d="M624 1646 c5 -14 3 -17 -11 -11 -12 4 -7 -5 11 -24 17 -17 31 -31 33 -31 5 0 -26 73 -34 79 -3 4 -3 -2 1 -13z"/>
    <path d="M920 1650 c107 -11 147 -37 136 -87 -6 -27 -6 -27 9 -9 20 27 19 39 -7 64 -34 31 -72 42 -141 40 l-62 -1 65 -7z"/>
    <path d="M768 1620 c-20 -11 -40 -24 -43 -30 -4 -6 12 -1 34 11 23 12 44 25 47 30 7 12 5 11 -38 -11z"/>
    <path d="M562 1601 c-6 -4 9 -11 33 -17 48 -11 52 -2 6 14 -15 5 -33 7 -39 3z"/>
    <path d="M525 1560 l-30 -8 35 0 c19 0 44 3 55 8 18 8 18 9 -5 8 -14 0 -38 -4 -55 -8z"/>
    <path d="M720 1560 c-12 -8 -11 -10 7 -10 12 0 28 -2 36 -5 8 -4 14 0 14 10 0 17 -34 20 -57 5z"/>
    <path d="M402 1525 c-65 -35 -111 -110 -112 -177 0 -27 4 -38 15 -38 18 0 18 5 4 31 -21 41 21 117 94 170 41 30 40 37 -1 14z"/>
    <path d="M610 1499 c-6 -11 -10 -27 -8 -36 2 -10 9 -2 20 21 18 37 7 52 -12 15z"/>
    <path d="M650 1501 c-14 -26 -13 -51 1 -27 9 15 13 16 20 5 6 -10 9 -6 9 14 0 31 -15 36 -30 8z"/>
    <path d="M744 1492 c16 -18 32 -30 34 -27 3 3 15 -3 26 -12 19 -16 19 -16 -1 7 -12 14 -37 34 -55 44 l-33 19 29 -31z"/>
    <path d="M1048 1501 c-7 -53 -114 -94 -171 -66 -30 15 -30 15 -12 -5 22 -24 45 -25 111 -5 62 18 101 55 86 81 -9 16 -10 16 -14 -5z"/>
    <path d="M850 1409 c0 -4 7 -24 16 -45 20 -47 15 -121 -10 -160 -16 -24 -22 -26 -64 -21 -25 3 -56 0 -69 -6 -57 -26 -112 41 -114 138 -1 54 -2 57 -9 25 -24 -97 65 -218 128 -175 15 11 27 12 55 3 30 -9 40 -8 61 5 46 31 60 144 26 207 -11 19 -19 32 -20 29z"/>
    <path d="M539 1330 c-20 -20 -55 -42 -79 -50 -23 -8 -38 -16 -31 -18 20 -7 119 46 137 72 24 38 14 36 -27 -4z"/>
    <path d="M343 1285 c2 -27 6 -30 37 -32 35 -2 35 -2 8 9 -14 6 -31 21 -37 32 -10 19 -10 18 -8 -9z"/>
  </g>
</svg>