<?xml version="1.0" encoding="utf-8"?>
<!-- Generator: Adobe Illustrator 27.5.0, SVG Export Plug-In . SVG Version: 6.00 Build 0)  -->
<svg version="1.1" id="Layer_1" xmlns="http://www.w3.org/2000/svg" xmlns:xlink="http://www.w3.org/1999/xlink" x="0px" y="0px"
	 viewBox="0 0 120 120" style="enable-background:new 0 0 120 120;" xml:space="preserve">
<!-- <rect x="-0.001" y="0" style="fill:#FFFFFF;" width="120" height="120"/> -->
<g>
	<g>
		<path d="M47.219,73.726c-1.449-0.242-2.09-1.283-2.279-2.675h0.032c0.934,0.431,1.703,1.635,2.831,1.485
			c-1.384-0.273-2.669-1.483-2.859-2.907c0.965,0.689,2.319,0.316,3.315,1.135c0.45,0.393,0.577,1.04,0.768,1.593
			c0.224,0.648,0.416,1.07,0.865,1.593C48.958,73.551,48.152,73.865,47.219,73.726z"/>
		<path d="M43.231,72.601c-0.343-0.684-0.101-1.273,0.426-1.78l0.009,0.014c0.105,0.524-0.165,1.218,0.244,1.647
			c-0.31-0.667-0.195-1.579,0.346-2.096c0.006,0.617,0.579,1.072,0.54,1.743c-0.027,0.31-0.261,0.562-0.434,0.812
			c-0.204,0.294-0.323,0.504-0.404,0.854C43.839,73.279,43.459,73.036,43.231,72.601z"/>
		<g>
			<g>
				<path d="M39.806,52.334c0.35,0.253,0.624-0.231,0.617-0.476c0.015-0.283-0.114-0.493-0.22-0.621
					c-0.207-0.272-0.288-0.379-0.253-0.491c0.027-0.167,0.549-0.321-0.472-0.549c-0.507-0.06-1.148,0.188-1.571,0.82
					c-0.355,0.586-0.615,1.423-0.434,2.459c0.152,1.038,0.988,2.133,2.616,2.737c1.586,0.64,3.961,0.321,6.654-0.935
					c-0.566,0.188-1.468,0.539-2.619,0.796c-1.136,0.253-2.576,0.41-3.862-0.121c-0.613-0.242-1.291-0.719-1.686-1.21
					c-0.395-0.51-0.565-1.216-0.436-1.898c0.068-0.34,0.208-0.672,0.419-0.971c0.158-0.251,0.413-0.4,0.727-0.438
					c0.284-0.052,0.724,0.109,0.84,0.299C40.29,51.944,40.18,52.494,39.806,52.334z"/>
			</g>
		</g>
		<g>
			<g>
				<path d="M68.439,70.851c-0.022-0.352-0.092-0.823-0.249-1.325c-0.135-0.427-0.336-0.886-0.597-1.296
					c-0.233-0.368-0.521-0.706-0.826-0.95c-0.551-0.438-1.043-0.429-1.379-0.454c-0.322-0.024-0.542-0.088-0.543-0.227
					c0.001-0.283,0.923-1.043,1.939-0.181c0.187,0.159,0.364,0.354,0.529,0.574c-0.028-0.055-0.058-0.107-0.088-0.159
					c-0.211-0.28-0.522-0.63-0.923-0.959c-0.346-0.284-0.766-0.558-1.208-0.758c-0.398-0.18-0.822-0.306-1.212-0.343
					c-0.7-0.065-1.107,0.211-1.402,0.374c-0.283,0.155-0.502,0.223-0.579,0.107c-0.153-0.237,0.201-1.378,1.525-1.213
					c0.242,0.031,0.499,0.098,0.757,0.191c-0.064-0.035-0.129-0.069-0.193-0.102c-0.734-0.37-1.208-0.416-1.544-0.47
					c-0.324-0.051-0.567-0.119-0.632-0.219c-0.101-0.159,0.212-0.469,1.026-0.24c-0.274-0.123-0.57-0.243-0.876-0.351
					c-0.462-0.161-0.956-0.297-1.406-0.378c-0.811-0.145-1.277-0.053-1.615-0.008c-0.325,0.044-0.577,0.048-0.667-0.028
					c-0.182-0.157,0.209-0.738,1.743-0.441c0.452,0.088,0.949,0.233,1.427,0.407c0.541,0.198,1.071,0.438,1.534,0.686
					c0.492,0.264,0.907,0.535,1.219,0.772c0.224,0.142,0.446,0.296,0.662,0.456c0.317,0.237,0.624,0.491,0.905,0.747
					c-0.002-0.011-0.003-0.021-0.003-0.031c0.001-0.188,0.434-0.275,0.989,0.361c-0.162-0.254-0.344-0.517-0.541-0.772
					c-0.298-0.388-0.637-0.771-0.97-1.087c-0.6-0.565-1.04-0.743-1.348-0.89c-0.296-0.142-0.509-0.276-0.543-0.39
					c-0.066-0.23,0.579-0.503,1.7,0.584c0.331,0.322,0.667,0.716,0.972,1.123c0.344,0.461,0.657,0.952,0.909,1.413
					c0.268,0.489,0.467,0.944,0.598,1.313c0.109,0.24,0.212,0.491,0.304,0.744c0.198,0.541,0.357,1.102,0.467,1.614
					c0.045,0.211,0.082,0.414,0.111,0.607c0.051,0.294,0.079,0.573,0.09,0.821c0.008,0.186,0.007,0.35,0.001,0.489
					c-0.006,0.174-0.019,0.299-0.03,0.372c-0.009,0.071-0.018,0.118-0.022,0.138C68.434,71.541,68.467,71.293,68.439,70.851z"/>
			</g>
			<g>
				<g>
					<path d="M41.655,63.063c-0.095-0.188-0.314-0.983,0.049-2.177c0.309-1.157,1.298-2.443,1.304-2.415
						c0.006,0.018,0.89-1.278,2.771-2.35c0.935-0.543,2.105-0.975,3.141-1.233c-2.486,0.421-4.902,1.48-6.727,3.077
						c-1.837,1.578-3.087,3.564-3.76,5.401c-1.361,3.74-0.641,6.519-0.695,6.477c0.001-0.002,0.084,0.769,0.462,2.034
						c0.383,1.25,1.2,3.007,2.814,4.525c1.584,1.517,3.98,2.731,6.643,2.864c2.63,0.158,5.515-0.72,7.333-2.706
						c-0.064,0.066-0.138,0.125-0.208,0.189c0.873-1.025,1.327-1.777,1.809-3.195c0.324-0.738,0.62-3.266-0.259-4.981
						c-0.784-1.746-2.063-2.279-2.016-2.298c0.018,0.003-1.182-0.655-2.141-0.509c-0.987,0.093-1.416,0.62-1.503,0.779
						c-0.189,0.289-0.319,0.49-0.473,0.762c-0.187-0.24-0.32-0.427-0.186-0.784c0.058-0.184,0.416-0.826,1.467-1.089
						c1.009-0.299,2.43,0.23,2.396,0.255c-0.044,0.007,1.44,0.437,2.464,2.273c0.911,1.519,0.981,3.82,0.679,4.941
						c0.573-2.182,0.188-4.36-0.633-5.861c-0.841-1.519-2.04-2.338-2.806-2.737c-5.242-2.476-10.033,1.573-8.703,6.33
						c-0.757-2.329,0.078-4.654,1.77-6.023c1.701-1.345,4.375-1.837,7.045-0.525c0.919,0.48,2.511,1.585,3.307,3.715
						c0.816,2.055,0.797,4.986-0.702,7.44c-0.728,1.22-1.798,2.29-3.079,3.025c-1.283,0.742-2.753,1.12-4.203,1.232
						c-2.929,0.232-5.75-0.859-7.628-2.444c0.797,0.771,1.88,1.535,2.944,2.077c2.063,1.061,3.895,1.296,3.887,1.309
						c-0.022,0.017,1.85,0.317,3.417,0.286c1.643-0.015,2.81-0.124,3.076-0.064c0.556,0.054,0.513,0.317,0.18,0.83
						c-0.652,0.043-1.076,0.053-1.608-0.064c-0.27-0.075-1.326-0.157-2.833-0.3c-1.475-0.113-3.219-0.543-3.198-0.557
						c0.008-0.016-1.707-0.37-3.613-1.495c-1.934-1.053-3.656-3.056-4.096-3.792c-0.532-0.785-0.836-1.417-1.091-2.067
						c-0.861-1.996-0.93-3.352-0.954-3.341c0.042,0.017-0.463-1.994,0.221-5.007c0.633-2.965,2.946-6.856,6.904-8.831
						c3.902-1.992,8.752-2.075,12.377-0.811c3.692,1.199,6.083,3.456,7.12,4.602c1.959,2.16,2.96,4.283,3.594,6.331
						c0.616,2.059,0.919,4.097,0.862,6.506c-0.021-2.41-0.383-4.423-1.033-6.453c-0.667-2.015-1.672-4.092-3.603-6.219
						c-0.668-0.732-1.848-1.893-3.599-2.955c-1.738-1.063-4.064-2.008-6.686-2.297c-0.651-0.043-1.308-0.044-2.177,0.002
						c-0.826,0.007-3.325,0.405-5.06,1.351c-1.776,0.906-2.667,2.048-2.676,2.028c0.008-0.013-0.994,1.091-1.352,2.146
						c-0.424,1.069-0.28,1.832-0.215,2.018c0.124,0.383,0.157,0.646,0.254,1.041C42.062,63.431,41.823,63.445,41.655,63.063z"/>
				</g>
			</g>
			<g>
				<g>
					<path d="M48.905,59.473c1.108-0.671,1.874-0.82,2.313-0.828c0.443-0.012,0.589,0.125,0.641,0.275
						c0.099,0.3-0.144,0.669,0.656,0.488c0.791-0.088,1.729-1.18,4.727-1.055c1.46,0.108,3.43,0.6,5.566,2.109
						c2.074,1.469,4.519,4.104,5.257,8.073c-0.042-0.796-0.283-2.114-1.035-3.657c-0.749-1.53-2.021-3.266-3.858-4.713
						c-1.822-1.443-4.22-2.626-6.884-2.922C53.655,56.899,50.722,57.673,48.905,59.473z"/>
				</g>
			</g>
			<g>
				<path d="M66.194,60.475c-0.306-0.662-0.646-1.318-1-1.945c-0.042-0.077-0.092-0.152-0.134-0.229
					c0.159,0.216,0.283,0.466,0.419,0.698c1.439,2.524,2.31,5.332,2.565,8.157h-0.004C67.8,64.87,67.202,62.59,66.194,60.475z"/>
				<path d="M64.541,57.898c-0.367-0.53-0.753-1.069-1.148-1.558l-0.143-0.187c0.191,0.198,0.369,0.434,0.544,0.647
					c0.285,0.357,0.559,0.723,0.819,1.096c0.89,1.274,1.618,2.658,2.18,4.094c0.646,1.666,1.049,3.413,1.244,5.166l-0.006,0.001
					C67.655,63.877,66.465,60.654,64.541,57.898z"/>
				<path d="M62.391,55.589c-0.389-0.388-0.79-0.801-1.185-1.149c-0.048-0.043-0.1-0.091-0.145-0.139
					c0.223,0.166,0.439,0.371,0.648,0.551c0.326,0.312,0.673,0.618,0.981,0.951c1.057,1.083,1.979,2.31,2.751,3.61
					c1.395,2.379,2.269,5.04,2.587,7.743l-0.007,0.001C67.488,62.852,65.482,58.707,62.391,55.589z"/>
				<path d="M59.98,53.775c-0.362-0.257-0.748-0.564-1.094-0.768c-0.045-0.028-0.098-0.061-0.139-0.098
					c0.229,0.132,0.464,0.27,0.682,0.419c0.349,0.237,0.71,0.476,1.046,0.737c1.151,0.855,2.204,1.862,3.136,2.962
					c2.397,2.88,3.932,6.447,4.41,10.132h-0.005C67.309,61.863,64.337,56.891,59.98,53.775z"/>
				<path d="M58.492,52.925c-0.417-0.24-0.841-0.497-1.267-0.696l-0.211-0.103c0.252,0.123,0.513,0.236,0.754,0.376
					c0.264,0.15,0.542,0.291,0.801,0.451c1.014,0.589,1.986,1.281,2.881,2.056c3.554,3.082,5.928,7.493,6.565,12.151h-0.006
					C67.183,61.297,63.573,55.914,58.492,52.925z"/>
				<path d="M64.212,58.221c-1.962-2.605-4.568-4.7-7.501-6.067c-0.396-0.177-0.808-0.369-1.195-0.512
					c-0.053-0.02-0.111-0.041-0.166-0.065c0.281,0.075,0.56,0.193,0.831,0.304c0.421,0.158,0.83,0.359,1.24,0.548
					c0.941,0.46,1.85,1.01,2.705,1.629c4.217,3.078,7.129,7.911,7.88,13.103l-0.005,0.001
					C67.486,63.927,66.185,60.821,64.212,58.221z"/>
				<path d="M63.327,57.329c-2.41-2.746-5.577-4.775-9.014-5.823c-0.397-0.128-0.804-0.221-1.208-0.328
					c-0.056-0.012-0.111-0.026-0.165-0.043c0.331,0.055,0.678,0.129,1.009,0.213c0.486,0.124,0.975,0.266,1.453,0.431
					c1.19,0.401,2.348,0.945,3.438,1.601c4.795,2.924,8.233,8.041,9.138,13.663c0,0,0.008,0.041,0.022,0.12h-0.006
					C67.377,63.518,65.743,60.069,63.327,57.329z"/>
				<path d="M45.282,51.915l0.178-0.033c3.855-0.813,8.059-0.351,11.769,1.42c3.708,1.753,6.915,4.77,8.873,8.561
					c0.872,1.653,1.485,3.45,1.873,5.304l0.007-0.001c-0.002-0.01-0.004-0.018-0.005-0.026c0.001,0.009,0.003,0.017,0.005,0.026
					l0.007-0.001c-0.004-0.017-0.007-0.033-0.011-0.05l0.011,0.049h0.006c-0.175-0.91-0.366-1.816-0.658-2.694
					c-1.627-5.239-5.529-9.626-10.381-11.87c-1.279-0.58-2.621-1.004-3.975-1.258c-0.567-0.101-1.136-0.19-1.706-0.236
					c-0.385-0.046-0.798-0.061-1.174-0.059l0.178,0.015c0.419,0.033,0.836,0.061,1.252,0.121c3.781,0.518,7.443,2.227,10.336,4.868
					c1.591,1.438,2.94,3.159,3.983,5.061C63.466,56.772,59.43,53.469,54.87,52c-1.422-0.453-2.894-0.696-4.352-0.767
					c-0.617-0.034-1.235-0.032-1.845,0.005c-0.411,0.019-0.829,0.051-1.228,0.119c0.059-0.001,0.123-0.008,0.182-0.014
					c0.394-0.044,0.797-0.06,1.199-0.075c3.811-0.07,7.707,1.084,10.958,3.319c1.356,0.922,2.6,2.03,3.69,3.282
					c-2.817-3.214-6.659-5.429-10.712-6.207c-1.48-0.272-2.979-0.337-4.443-0.235C47.295,51.505,46.25,51.644,45.282,51.915z
					 M63.722,58.159c-0.069-0.081-0.138-0.163-0.208-0.243C63.584,57.997,63.652,58.078,63.722,58.159z M63.901,58.376
					c-0.009-0.011-0.018-0.021-0.026-0.032C63.884,58.354,63.893,58.365,63.901,58.376z M65.242,60.235
					c-0.045-0.071-0.092-0.142-0.138-0.213C65.15,60.093,65.197,60.164,65.242,60.235z M67.838,66.437
					c-0.323-1.449-0.794-2.862-1.417-4.2c-0.178-0.381-0.367-0.755-0.568-1.122c0.862,1.572,1.517,3.268,1.926,5.03l0.002,0.013
					L67.838,66.437z M65.508,60.665c0.613,1.021,1.137,2.102,1.556,3.23l0.001,0.003c0.065,0.178,0.128,0.357,0.189,0.537
					C66.803,63.116,66.217,61.85,65.508,60.665z M67.457,65.063c0.007,0.023,0.014,0.047,0.021,0.07
					C67.471,65.11,67.464,65.087,67.457,65.063z M67.275,64.498c0.032,0.097,0.063,0.193,0.095,0.29
					C67.339,64.691,67.308,64.595,67.275,64.498z M65.505,60.66c-0.068-0.114-0.139-0.227-0.21-0.34
					C65.366,60.433,65.437,60.546,65.505,60.66z"/>
			</g>
			<g>
				<path d="M67.679,66.235c-0.01,0.053-0.019,0.089-0.023,0.104c-0.024,0.072,0.023-0.219,0.02-0.825
					c-0.003-0.078-0.007-0.159-0.012-0.246c-0.035-0.598-0.137-1.363-0.35-2.156c-0.16-0.596-0.383-1.202-0.648-1.728
					c-0.215-0.423-0.463-0.804-0.715-1.092c-0.406-0.461-0.786-0.596-1.025-0.699c-0.218-0.095-0.353-0.182-0.328-0.254
					c0.04-0.114,0.504-0.252,1.006,0.026c-0.143-0.128-0.299-0.25-0.463-0.36c-0.236-0.158-0.495-0.294-0.746-0.389
					c-0.416-0.156-0.75-0.155-0.969-0.165c-0.204-0.009-0.34-0.029-0.338-0.072c0.005-0.085,0.567-0.315,1.272-0.059
					c0.234,0.085,0.475,0.21,0.699,0.358c0.273,0.181,0.532,0.402,0.749,0.637c0.253,0.272,0.446,0.561,0.577,0.82
					c0.121,0.174,0.239,0.369,0.35,0.577c0.065,0.124,0.129,0.254,0.189,0.389c-0.044-0.143-0.09-0.285-0.137-0.427
					c-0.266-0.786-0.596-1.583-0.954-2.264c-0.645-1.223-1.243-1.728-1.648-2.118c-0.391-0.376-0.654-0.7-0.648-0.905
					c0.013-0.326,0.734-0.485,1.621,0.604c-0.255-0.436-0.542-0.884-0.854-1.323c-0.473-0.664-1.014-1.32-1.548-1.856
					c-0.963-0.964-1.683-1.263-2.184-1.51c-0.482-0.239-0.827-0.467-0.878-0.663c-0.098-0.397,0.987-0.879,2.786,0.976
					c0.53,0.549,1.065,1.221,1.547,1.918c0.546,0.791,1.037,1.632,1.429,2.422c0.418,0.84,0.723,1.621,0.92,2.255
					c0.167,0.414,0.323,0.845,0.463,1.28c0.298,0.93,0.53,1.894,0.684,2.777c0.169,0.973,0.242,1.849,0.25,2.534
					c0.039,0.938-0.058,1.53-0.088,1.629C67.668,66.479,67.674,66.408,67.679,66.235z"/>
			</g>
		</g>
	</g>
	<g>
		<g>
			<path d="M62.708,68.793c0.316,0.125,0.101,0.547-0.156,0.566c-0.263,0.053-0.482-0.181-0.569-0.36
				c-0.159-0.432,0.095-0.801,0.29-0.969c0.435-0.355,0.692-0.332,0.717-0.471c0.046-0.108-0.104-0.227-0.049-0.306
				c0.036-0.067,0.456-0.176,1.152,0.348c0.691,0.515,0.941,1.862,0.131,2.738c-0.663,0.927-2.532,1.27-3.627-0.097
				c-0.52-0.625-0.873-1.593-0.542-2.569c0.301-0.979,1.145-1.994,2.432-2.398c1.262-0.441,2.949-0.038,4.297,1.186
				c1.338,1.174,2.305,3.346,1.681,5.724c0.178-0.925,0.276-2.563-0.658-4.173c-0.844-1.524-3.029-3.115-5.114-2.466
				c-1.008,0.313-1.916,1.174-2.179,2.238c-0.292,0.964,0.325,2.138,1.333,2.451c0.859,0.385,2.109-0.79,1.45-1.567
				c-0.296-0.41-0.861-0.409-1.058,0.054c-0.09,0.171,0.051,0.438,0.255,0.5C62.689,69.287,62.986,68.962,62.708,68.793z"/>
		</g>
	</g>
</g>
</svg>
