<?xml version="1.0" encoding="utf-8"?>
<!-- Generator: Adobe Illustrator 27.5.0, SVG Export Plug-In . SVG Version: 6.00 Build 0)  -->
<svg version="1.1" id="Layer_1" xmlns="http://www.w3.org/2000/svg" xmlns:xlink="http://www.w3.org/1999/xlink" x="0px" y="0px"
	 viewBox="0 0 850.394 1133.858" style="enable-background:new 0 0 850.394 1133.858;" xml:space="preserve">

<rect x="0" y="2.15" style="fill:url(#SVGID_1_);" width="850.393" height="1131.708"/>
<g>
	<path d="M223.246,194.735c-11.971,1.703-24.061,6.686-36.042,9.817c-3.644,0.952-7.316,1.687-10.965,2.295
		c-1.214,0.203-2.444,0.4-3.661,0.729c1.177,0.389,2.341,0.88,3.513,1.265c3.511,1.153,7.042,2.413,10.503,3.893
		c11.384,4.871,22.601,11.584,34.189,15.047c11.738,3.508,23.432,2.939,35.508-2.647c3.608-1.671,7.226-3.635,10.759-5.991
		c0.739-0.492,2.029-1.365,3.024-2.265c-0.02-0.006-0.043-0.007-0.061-0.017c-0.12-0.037-2.991-1.924-7.88-3.21
		c-4.858-1.375-11.814-1.458-18.719-1.066c-6.881,0.585-13.894,1.491-19.146,1.116c-5.316-0.199-8.463-2.033-8.432-2.004
		c-0.022-0.023,3.218,1.578,8.447,1.416c5.205,0.019,11.983-1.329,18.934-2.396c6.953-0.864,14.136-1.298,19.602-0.16
		c3.491,0.669,6.123,1.685,7.603,2.343c-0.864-1.07-2.051-2.169-2.699-2.759c-3.133-2.863-6.432-5.334-9.753-7.521
		C246.856,195.308,235.373,193.011,223.246,194.735z"/>
	<path d="M277.801,174.799c-4.322-7.672-10.9-14.559-16.197-21.861c-1.609-2.22-3.079-4.518-4.457-6.833
		c-0.459-0.771-0.919-1.553-1.463-2.292c0.046,0.9,0.021,1.821,0.071,2.718c0.146,2.688,0.224,5.417,0.136,8.157
		c-0.294,9.014-1.882,18.402-1.168,27.182c0.725,8.892,4.204,16.678,11.189,23.396c2.088,2.006,4.378,3.941,6.911,5.716
		c0.529,0.371,1.463,1.017,2.336,1.453c0.001-0.015-0.005-0.031-0.003-0.046c-0.006-0.09,0.514-2.538,0.094-6.197
		c-0.352-3.661-2.135-8.403-4.227-12.984c-2.218-4.515-4.688-9.033-5.821-12.698c-1.272-3.66-0.859-6.28-0.872-6.251
		c0.009-0.022-0.219,2.602,1.274,6.107c1.364,3.535,4.072,7.78,6.635,12.214c2.424,4.49,4.619,9.249,5.294,13.26
		c0.468,2.545,0.476,4.601,0.42,5.778c0.497-0.87,0.929-1.965,1.158-2.561c1.114-2.883,1.918-5.775,2.524-8.607
		C283.657,190.973,282.179,182.572,277.801,174.799z"/>
	<path d="M249.582,232.087c-6.414,6.035-11.524,14.072-17.345,20.962c-1.771,2.094-3.649,4.072-5.568,5.965
		c-0.638,0.63-1.286,1.263-1.874,1.971c0.863-0.262,1.763-0.458,2.622-0.721c2.575-0.787,5.205-1.516,7.887-2.086
		c8.821-1.874,18.315-2.581,26.67-5.378c8.459-2.833,15.184-8.077,20.032-16.468c1.448-2.507,2.778-5.194,3.894-8.078
		c0.235-0.604,0.638-1.665,0.852-2.616c-0.014,0.003-0.028,0.013-0.043,0.014c-0.087,0.028-2.588,0.109-6.039,1.393
		c-3.47,1.219-7.647,4.086-11.594,7.215c-3.852,3.235-7.646,6.715-10.933,8.694c-3.249,2.112-5.893,2.338-5.862,2.344
		c-0.022-0.005,2.579-0.411,5.624-2.7c3.106-2.171,6.579-5.818,10.269-9.369c3.78-3.428,7.874-6.7,11.606-8.315
		c2.359-1.065,4.354-1.564,5.51-1.793c-0.963-0.275-2.131-0.431-2.764-0.512c-3.065-0.389-6.066-0.477-8.961-0.387
		C263.881,222.528,256.08,225.976,249.582,232.087z"/>
	<g>
		<g>
			<path d="M234.993,513.033c-21.036,2.584-39.3-6.145-45.22-18.512c-6.389-11.935-4.889-22.258-3.291-28.727
				c4.062-13.223,9.036-14.847,11.451-14.297c2.652,0.679,4.375,3.734,6.527,3.801c2.367,0.223,3.899-2.807,10.311-11.449
				c6.972-8.103,12.715-19.24,33.925-26.068c10.779-3.431,24.159-6.211,40.596-4.468c16.27,1.734,35.799,8.579,54.145,24.105
				c18.325,15.344,35.198,39.029,45.268,70.125c11.072,30.996,10.234,70.32,3.033,110.607
				c-6.379,40.563-20.582,84.676-15.234,134.291c6.618,48.732,30.417,106.063,84.831,144.01
				c-20.707-15.486-50.939-46.563-68.252-94.986c-8.667-23.932-14.199-51.813-11.794-81.068
				c1.856-29.781,10.212-61.549,17.551-97.076c3.586-17.779,6.777-36.643,7.771-56.618c1.171-19.825-0.84-41.995-6.597-61.971
				c-11.021-40.306-36.118-81.591-78.415-103.165c-20.857-10.542-44.992-14.68-67.633-12.359
				c-6.118,0.668-10.467,1.355-16.833,2.539c-6.002,1.486-11.943,3.317-17.472,6.107c-11.18,5.296-20.79,13.329-28.082,22.785
				c-14.294,18.787-21.146,43.857-12.731,66.791c4.094,11.39,13.755,20.678,24.498,24.445
				C214.169,515.546,225.07,515.136,234.993,513.033z"/>
		</g>
	</g>
	<g>
		<g>
			<path d="M264.345,212.985c-1.164-0.299-1.167-0.285,0-0.009c31.866,6.755,62.96,19.174,89.135,39.234
				c26.435,19.656,47.271,46.509,61.778,76.232c29.267,59.923,35.223,128.584,30.092,194.352
				c-2.599,32.877-9.445,66.273-17.208,97.557c-7.316,31.648-13.843,63.264-17.147,95.008c-3.121,31.641-3.148,63.678,4.844,93.826
				c7.731,30.09,24.597,57.715,49.193,77.986c6.856,9.414,6.143,11.301-5.475,7.236c-28.086-18.447-49.582-47.848-59.724-80.512
				c-10.519-32.713-11.358-67.246-8.454-100.428c3.102-33.303,10.093-65.781,18.111-97.607c8.58-31.949,15.863-62.528,19.783-94.737
				c7.503-63.487,5.402-130.25-20.193-189.818c-12.693-29.546-31.821-56.729-57.184-77.073
				C326.817,233.499,296.127,220.177,264.345,212.985z"/>
		</g>
	</g>
	<g>
		<g>
			<path d="M411.684,735.244l1.251-8.785c4.715-28.865,17.743-55.113,33.599-78.799c11.061-16.346,23.58-31.729,37.01-46.229
				c13.494-14.76,27.776-28.645,43.05-41.323c15.15-12.484,31.452-23.529,49.427-31.926c14.977-6.866,31.253-11.483,48.249-13.131
				c-6.767-0.197-13.564-0.104-20.337,0.547c-9.157,1.123-18.304,2.811-27.133,5.611c-18.306,5.602-35.458,14.553-50.864,25.529
				c-14.199,10.196-27.043,22.198-39.492,34.332c-6.466,6.514-13.108,12.92-19.249,19.74c-0.833,0.904-1.43,0.168-0.615-0.752
				c6.254-7.193,13.112-13.943,19.692-20.82c12.464-12.699,25.476-24.935,40.084-35.413c25.87-18.297,57.127-30.545,89.368-31.139
				c-11.459-0.478-23.047,0.335-34.535,2.124c-17.933,2.982-35.769,8.412-52.48,16.539c-19.371,9.238-37.53,21.674-53.289,36.724
				c-15.725,15.195-28.896,32.783-38.876,51.641c-10.004,18.57-17.014,38.303-21.286,58.188
				c-2.186,10.068-3.433,20.262-4.135,30.367C410.522,717.311,410.607,726.553,411.684,735.244z"/>
		</g>
	</g>
	<g>
		<path d="M423.001,564.227c3.252-11.432,6.446-28.961,6.88-47.211c0.598-18.217-1.847-37.058-5.697-49.961
			c-5.609-18.804-16.342-38.802-31.143-53.745c-14.603-15.151-33.078-24.289-48.884-26.091
			c14.079,4.898,25.884,17.586,34.649,31.628c8.996,14.142,15.202,29.311,24.403,42.574c-5.021-4.098-10.767-10.743-15.246-10.111
			c11.65,18.195,26.359,38.216,34.616,60.017c-3.591-7.82-9.165-11.956-13.518-13.885c7.669,18.969,16.438,42.571,14.011,66.161
			L423.001,564.227z"/>
		<path d="M450.638,854.035c-1.455,2.607-2.688,6.785-1.538,12.063c-4.086-14.045-4.268-29.637-5.296-43.154
			c-2.485,1.371-2.855,6.873-3.825,10.824c-0.394-10.123-3.005-20.072-3.832-30.557c-0.905-10.346,0.224-21.164,5.434-28.934
			c-7.244,6.869-13.057,18.422-14.662,31.531c-1.782,13.076,0.385,27.152,4.668,38.697c2.94,7.924,8.825,18.293,15.997,27.197
			c7.107,8.988,15.322,16.572,21.267,21.078l-0.271-0.289C458.46,881.58,453.949,866.438,450.638,854.035z"/>
		<path d="M459.856,274.37c-13.616,11.438-23.347,26.495-28.304,40.531c-3.406,9.632-5.404,23.606-4.572,37.036
			c0.686,13.463,3.936,26.313,7.148,34.664l-0.075-0.459c-2.626-17.345,5.216-35.011,12.1-49.223
			c-4.043,1.544-9.19,4.75-12.431,10.62c7.389-16.319,20.844-31.504,31.458-45.254c-4.198-0.344-9.471,4.72-14.102,7.882
			c8.397-10.044,13.975-21.413,22.173-32.098c7.981-10.606,18.825-20.298,31.913-24.299
			C490.416,255.531,473.278,262.785,459.856,274.37z"/>
	</g>
	<g>
		<g>
			<path d="M298.268,727.209c8.3,2.816,16.272,6.961,23.495,11.885c24.272,16.674,39.956,41.34,56.585,66.404
				c16.432,24.744,32.723,50.715,56.968,70.543c7.334,5.971,15.573,11.248,24.496,15.176c2.924,1.387,6.09,2.4,9.091,3.566
				c-2.947-1.355-5.997-2.5-8.828-4.023c-8.622-4.305-16.42-9.945-23.148-16.262c-22.221-20.99-35.096-47.648-50.363-73.234
				c-15.278-25.707-32.95-51.963-61.269-67.059c-8.33-4.391-17.31-7.652-26.294-9.236c-3.26-0.783-10.972-1.482-10.985-1.225
				C287.953,724.156,295.417,726.021,298.268,727.209z"/>
			<path d="M463.877,891.158c-3.152-1.465-6.217-3.26-9.348-4.875c-10.227-5.807-19.75-12.012-29.574-18.615
				c-9.672-6.516-19.164-13.303-27.949-20.83c-2.701-2.285-5.287-4.685-7.843-7.113l-2.576-2.41l2.196,2.816l6.715,8.414
				c7.352,9.229,15.068,18.76,24.648,26.855c9.616,8.197,21.051,14.201,32.925,16.734c3.614,0.648,7.022,1.361,10.498,1.395
				c1.267,0.057,4.115,0.137,4.134-0.211C467.727,892.973,464.991,891.678,463.877,891.158z"/>
			<g>
				<path d="M383.418,810.557c-0.886-2.934-1.962-6.059-3.322-8.898c-4.751-10.008-10.948-18.738-19.882-26.895
					c-8.795-8.035-19.614-13.637-29.534-16.842c-3.077-1.146-6.457-1.715-9.53-2.387c-1.039-0.199-2.133-0.273-3.173-0.371
					c1.198,0.25,1.836,0.324,3.026,0.672c2.94,0.914,6.192,1.807,8.973,3.303c9.496,4.621,18.318,11.887,26.21,20.34
					c7.219,7.725,13.983,16.525,20.592,25.268c1.835,2.416,3.59,4.811,5.262,7.037c0.614,0.815,1.994,2.711,2.192,2.531
					C384.429,814.137,383.73,811.592,383.418,810.557z"/>
			</g>
			<g>
				<path d="M400.828,827.92c-1.559-1.707-3.17-3.586-4.466-5.5c-4.59-6.727-7.659-13.529-9.943-21.516
					c-2.276-7.875-2.983-15.945-3.783-23.525l-0.664-7.324l-0.152-2.451c0.157,0.971,0.242,1.457,0.421,2.43
					c0.426,2.426,0.958,4.922,1.525,7.273c2.054,7.809,4.549,15.59,7.521,23.369c2.678,7.106,5.639,14.34,8.557,21.44
					c0.82,1.953,1.637,3.854,2.391,5.646c0.277,0.66,0.928,2.158,0.732,2.178C402.756,829.969,401.383,828.523,400.828,827.92z"/>
			</g>
			<g>
				<path d="M390.482,812.051c-3.122-3.035-6.329-6.41-9.077-9.82c-9.723-12.027-16.956-24.033-24.987-37.877
					c-7.967-13.543-15.495-27.75-26.774-39.926c-3.466-3.906-7.455-7.711-11.656-11.311l-4.278-3.598
					c1.862,1.334,2.789,1.992,4.639,3.305c4.519,3.373,9,6.984,12.962,10.596c13.544,11.719,24.072,25.113,33.299,38.846
					c8.497,12.529,15.85,25.836,22.795,38.885c1.897,3.613,3.773,7.131,5.5,10.428c0.637,1.215,2.119,3.969,1.77,4.037
					C394.324,815.682,391.585,813.125,390.482,812.051z"/>
			</g>
			<path d="M463.38,892.703c-3.956-1.133-7.877-2.799-11.615-4.693c-12.539-6.465-22.253-16.289-28.968-27.482
				c-6.732-11.076-10.927-22.811-15.288-34.494c-1.317-3.572-2.721-7.139-4.12-10.74l-1.368-3.602l2.022,3.381
				c1.972,3.4,4.032,6.738,6.131,10.02c6.961,10.717,14.813,20.699,22.642,30.244c7.99,9.67,15.539,18.447,24.166,27.352
				c2.685,2.484,5.299,5.315,8.185,7.645c1.031,0.898,3.5,3.018,3.271,3.365C468.21,894.045,464.789,893.102,463.38,892.703z"/>
			<path d="M407.015,845.23c-1.288-1.971-2.69-3.967-4.128-5.932c-4.695-6.617-9.856-12.768-15.595-18.703
				c-5.67-5.838-11.648-11.31-17.43-16.789l-5.249-5.061l-1.749-1.678l1.496,1.898l4.454,5.732
				c4.747,6.348,9.2,13.074,14.238,19.508c5.068,6.523,10.708,12.461,17.064,17.656c1.926,1.545,3.875,3.037,5.808,4.418
				c0.723,0.502,2.422,1.639,2.57,1.484C408.652,847.613,407.467,845.932,407.015,845.23z"/>
		</g>
	</g>
	<g>
		<g>
			<path d="M723.947,712.041c-5.001-1.338-9.894-3.543-14.396-6.287c-15.146-9.307-25.784-24.207-36.997-39.303
				c-11.082-14.906-22.149-30.603-37.472-41.928c-4.635-3.408-9.752-6.324-15.185-8.34c-1.784-0.723-3.688-1.193-5.504-1.768
				c1.794,0.699,3.641,1.262,5.379,2.076c5.282,2.271,10.165,5.443,14.462,9.106c14.22,12.182,23.348,28.512,33.8,44.021
				c10.469,15.586,22.363,31.389,39.764,39.461c5.114,2.34,10.537,3.922,15.861,4.434c1.943,0.318,6.474,0.332,6.465,0.17
				C730.135,713.414,725.679,712.641,723.947,712.041z"/>
			<path d="M617.537,616.451c1.921,0.762,3.814,1.736,5.735,2.596c6.306,3.141,12.227,6.576,18.346,10.248
				c6.03,3.627,11.967,7.438,17.537,11.762c1.714,1.309,3.365,2.699,5.002,4.107l1.648,1.396l-1.45-1.678l-4.425-5.004
				c-4.845-5.488-9.917-11.156-15.986-15.797c-6.099-4.701-13.119-7.9-20.18-8.859c-2.145-0.213-4.169-0.477-6.191-0.307
				c-0.744,0.035-2.404,0.143-2.396,0.369C615.185,615.508,616.857,616.182,617.537,616.451z"/>
			<g>
				<path d="M669.292,663.5c0.696,1.822,1.516,3.764,2.479,5.504c3.38,6.135,7.523,11.371,13.221,16.09
					c5.609,4.644,12.247,7.621,18.215,9.117c1.861,0.563,3.86,0.736,5.688,0.994c0.617,0.068,1.262,0.057,1.869,0.059
					c-0.711-0.096-1.088-0.103-1.801-0.258c-1.766-0.422-3.714-0.811-5.421-1.611c-5.809-2.428-11.387-6.58-16.499-11.543
					c-4.673-4.537-9.149-9.787-13.531-15.008c-1.215-1.441-2.386-2.875-3.492-4.205c-0.406-0.488-1.328-1.623-1.432-1.498
					S669.048,662.854,669.292,663.5z"/>
			</g>
			<g>
				<path d="M658.099,653.365c1.013,1.008,2.064,2.117,2.934,3.268c3.086,4.049,5.291,8.227,7.11,13.207
					c1.809,4.908,2.715,10.033,3.648,14.834l0.834,4.648l0.24,1.557c-0.151-0.609-0.23-0.916-0.394-1.529
					c-0.396-1.531-0.859-3.092-1.336-4.566c-1.673-4.875-3.604-9.713-5.811-14.527c-1.996-4.391-4.163-8.852-6.296-13.231
					c-0.599-1.201-1.191-2.373-1.738-3.477c-0.201-0.408-0.673-1.33-0.562-1.352C656.852,652.164,657.738,653.01,658.099,653.365z"
					/>
			</g>
			<g>
				<path d="M665.094,662.941c2.002,1.762,4.074,3.74,5.884,5.77c6.393,7.152,11.341,14.424,16.861,22.826
					c5.469,8.217,10.72,16.879,18.032,24.035c2.254,2.307,4.808,4.516,7.475,6.584l2.708,2.063c-1.165-0.75-1.743-1.121-2.901-1.857
					c-2.837-1.902-5.663-3.961-8.189-6.051c-8.6-6.734-15.547-14.711-21.758-22.979c-5.713-7.539-10.811-15.641-15.651-23.594
					c-1.326-2.207-2.636-4.35-3.84-6.361c-0.447-0.74-1.479-2.422-1.278-2.482C662.635,660.83,664.386,662.313,665.094,662.941z"/>
			</g>
			<path d="M617.729,615.434c2.373,0.504,4.754,1.352,7.046,2.354c7.691,3.432,13.945,9.174,18.54,15.955
				c4.596,6.707,7.76,13.979,11.014,21.205c0.982,2.211,2.022,4.414,3.059,6.641l1.016,2.227l-1.385-2.051
				c-1.357-2.064-2.76-4.082-4.182-6.063c-4.706-6.465-9.891-12.41-15.029-18.076c-5.243-5.736-10.173-10.932-15.736-16.143
				c-1.716-1.438-3.411-3.103-5.234-4.434c-0.653-0.514-2.22-1.732-2.109-1.967C614.839,614.848,616.889,615.262,617.729,615.434z"
				/>
			<path d="M653.432,642.643c0.875,1.191,1.812,2.387,2.767,3.565c3.14,3.969,6.521,7.615,10.224,11.088
				c3.658,3.418,7.469,6.582,11.172,9.764l3.363,2.941l1.121,0.975l-0.986-1.129l-2.945-3.416c-3.151-3.795-6.154-7.85-9.479-11.684
				c-3.352-3.887-6.996-7.365-11.012-10.334c-1.215-0.883-2.441-1.727-3.651-2.502c-0.452-0.281-1.507-0.914-1.586-0.807
				C652.336,641.213,653.131,642.221,653.432,642.643z"/>
		</g>
	</g>
	<path d="M534.037,490.392c-4.171,1.283-8.371,2.682-12.484,4.185c-13.592,4.756-27.3,10.585-39.527,19.354
		c-12.183,8.986-22.123,21.014-26.975,35.407c-1.498,4.232-2.509,8.652-2.979,12.952c-0.163,1.606-0.477,5.211,0.116,5.409
		c0.591,0.197,2.949-2.588,3.888-3.681c2.706-3.104,5.462-6.201,8.347-9.111c9.439-9.816,18.596-18.818,28.072-28.876
		c9.48-9.714,19.268-19.835,30.869-27.929c3.49-2.507,7.224-4.758,11.047-6.819l3.823-2.108L534.037,490.392z"/>
	<path d="M469.77,386.736c-1.915-2.939-3.608-5.934-5.714-8.652l-2.034-2.737l1.21,3.187c1.361,3.08,2.159,6.399,2.942,9.578
		c2,10.82,0.286,21.134-2.033,31.03c-2.229,10.067-4.411,20.33-4.108,31.829c0.097,3.405,0.342,6.869,0.901,10.231
		c0.205,1.244,0.708,4.079,1.303,4.182c0.597,0.102,2.199-2.334,2.846-3.312c1.825-2.782,3.583-5.648,5.236-8.574
		c5.471-9.668,9.277-20.496,9.292-32.808C479.763,408.553,475.52,396.511,469.77,386.736z"/>
	<path d="M503.323,430.474l-0.717-3.557l-0.278,3.595c-0.269,3.515-1.208,6.962-2.693,10.078
		c-4.708,10.369-13.459,17.997-20.855,26.84c-7.589,8.904-14.342,19.003-17.125,31.595c-0.853,3.664-1.249,7.584-1.077,11.282
		c0.087,1.404,0.377,4.462,1.011,4.58c0.63,0.109,2.528-2.311,3.272-3.219c2.226-2.615,4.438-5.139,6.83-7.581
		c7.696-8.1,14.978-16.558,20.73-27.371c5.526-10.64,10.135-22.738,11.177-35.129C503.98,437.883,503.938,434.066,503.323,430.474z"
		/>
	<path d="M336.99,358.265c-0.301-0.886-0.428-1.805-0.611-2.726l-0.249-2.278c-0.203-1.526-0.087-3.078-0.073-4.631
		c0.258-3.094,0.878-6.2,2.016-9.145c4.301-11.899,16.812-20.593,29.444-20.532c11.083-0.229,21.943,3.241,30.665,9.107
		c8.77,5.86,15.484,14.02,19.672,22.988c2.533,5.47,4.263,11.279,4.975,17.136c0.251,1.947,0.367,3.928,0.35,5.863
		c-0.337-1.927-0.78-3.819-1.303-5.674c-1.527-5.572-4.126-10.81-7.452-15.285c-11.175-14.961-29.928-20.735-45.747-18.068
		c-6.857,1.084-12.146,5.26-15.06,10.997c-0.724,1.429-1.215,2.958-1.638,4.54c-0.097,0.804-0.369,1.605-0.384,2.443l-0.128,1.258
		c0.014,0.244-0.078,0.518-0.045,0.767c-0.095,2.029,1.069,4.512,3.505,5.943c0.72,0.418,1.542,0.764,2.454,0.947
		c0.476,0.18,0.933,0.314,1.55,0.173c0.612-0.124,1.188-0.556,1.616-1.175c0.276-0.272,0.344-0.767,0.52-1.032
		c0.157-0.147,0.214-0.364,0.182-0.633c0.131-0.422-0.897-1.097-1.196-1.189c-0.26,0.01-0.579,0.39-0.654,0.528
		c-0.064,0.27,0.243,0.481,0.255,0.638c0.048,0.098-0.367,0.502-1.089,0.054c-0.717-0.593-0.818-1.725-0.207-2.798
		c1.949-2.275,4.773-1.278,6.025-0.303c0.903,0.689,1.658,1.734,1.957,2.951c0.23,1.085,0.421,1.996,0.304,3.054
		c-0.117,2.053-0.941,4.207-2.485,5.869c-1.493,1.684-3.729,2.905-6.055,3.35c-1.888,0.398-3.903,0.463-5.91,0.196
		C345.443,370.78,339.031,365.524,336.99,358.265z"/>
	<g>
		<g>
			<path d="M495.176,93.639c-14.238,1.449-26.645,10.157-36.923,19.665c-9.48,8.86-17.055,19.497-23.063,30.75
				c-5.348,9.918-9.356,20.434-12.243,31.15c-4.726,17.211-6.136,34.935-7.085,52.347c-2.297,43.981,1.523,87.646,9.814,130.447
				c-8.165-42.715-10.952-87.014-3.587-129.744c2.942-16.9,7.882-33.316,13.615-49.053c3.525-9.835,7.323-19.509,11.974-28.694
				c5.224-10.43,11.302-20.432,18.985-29.041c8.236-9.37,18.287-16.581,29.347-23.197c1.044-0.633,3.676-2.6,3.435-3.663
				C499.214,93.605,496.226,93.518,495.176,93.639z"/>
			<path d="M436.219,402.207c-4.086-14.594-7.601-29.343-10.543-44.21C428.566,372.875,432.127,387.616,436.219,402.207z"/>
		</g>
	</g>
	<g>
		<path d="M605.936,715.912c2.037,9.096-3.684,18.125-12.779,20.164c-9.099,2.039-18.127-3.684-20.166-12.777
			c-2.039-9.102,3.682-18.129,12.783-20.168C594.867,701.092,603.897,706.815,605.936,715.912z"/>
		<g>
			<g>
				<path d="M595.578,734.744c-0.311-0.418,1.777-2.041,3.643-4.551c5.524-6.551,5.57-16.635,0.872-23.543
					c-4.686-7.107-12.816-11.643-21.213-12.375c-17.462-1.695-32.142,13.959-35.468,30.17c-4.101,16.982,4.644,34.225,18.18,44.49
					c13.271,10.746,31.377,14.834,47.955,11.564c33.573-7.225,57.05-41.775,57.974-75.234c2.017-34.66-20.566-65.918-49.14-83.908
					c-28.729-18.422-65.393-23.574-97.951-14.043c-32.681,9.398-59.855,33.529-79.117,61.34
					c-39.105,56.426-39.36,136.027-0.645,192.143c2.824,5.84-0.35,7.002-1.517,8.074l0,0c-1.405,0.715-3.515,3.465-8.094-1.73
					c-40.585-60.44-39.023-144.742,2.839-203.572c20.609-28.977,49.265-53.943,84.435-63.697
					c34.801-9.727,73.504-3.732,103.544,16.041c29.724,19.102,53.389,52.654,50.848,89.59c-1.641,35.617-26.238,71.35-62.438,78.877
					c-17.744,3.279-36.877-1.336-50.767-12.852c-14.089-10.848-23.372-29.67-18.735-47.66c3.741-17.182,19.45-33.605,38.288-31.643
					c8.989,0.891,17.577,5.842,22.474,13.455c5.029,7.588,4.787,18.453-1.204,25.402
					C598.271,733.771,595.669,734.957,595.578,734.744L595.578,734.744z"/>
			</g>
		</g>
	</g>
	<g>
		<g>
			<path d="M638.986,557.641c-0.07-0.02,0.176-0.854,0.898-1.59c4.161-4.641,11.718-0.7,12.565,4.754
				c1.372,5.556-2.876,10.994-7.887,12.837c-11.163,4.217-21.905-7.675-21.115-18.357c0.719-11.219,10.447-20.111,21.093-22.111
				c11.018-2.346,22.066,3.423,29.09,11.524c7.261,8.183,10.617,19.602,9.188,30.464c-1.479,10.947-7.69,20.711-15.589,28.064
				c-15.893,15.082-41.183,19.166-61.072,9.506c-1.777-1.111-1.036-1.869-0.881-2.318l0,0c0.271-0.4,0.483-1.397,2.381-0.842
				c18.51,9.281,42.439,5.793,57.725-8.359c7.607-6.902,13.629-16.182,15.104-26.367c1.465-10.178-1.552-21.02-8.345-28.865
				c-6.644-7.802-16.955-13.344-27.315-11.248c-10.02,1.691-19.441,10.195-20.182,20.612c-0.889,9.996,9.191,21.407,19.635,17.532
				c4.732-1.678,8.796-6.775,7.56-11.925c-0.762-5.126-7.737-8.883-11.642-4.604C639.523,557.019,639.125,557.713,638.986,557.641
				L638.986,557.641z"/>
		</g>
	</g>
	<g>
		<path d="M469.714,745.131C469.658,745.029,469.658,745.029,469.714,745.131L469.714,745.131z"/>
		<path d="M502.372,717.127c-6.306-11.498-18.051-19.859-31.11-22.147c-13.289-2.627-26.603,1.897-37.354,8.668
			c-22.092,13.941-32.893,42.705-25.709,66.961c2.261,3.979,2.917,3.606,3.306-0.74c-4.176-23.44,6.865-47.873,26.38-60.037
			c9.77-5.926,21.135-9.834,32.163-7.799c11.024,1.703,21.273,8.426,27.123,18.141c6.196,9.588,7.447,22.08,0.96,31.764
			c-5.945,9.412-19.023,15.504-29.505,9.924c-5.07-2.678-8.821-7.811-9.913-13.477c-1.009-5.703,2.228-11.867,7.624-14.353
			c5.203-3.102,12.725-0.031,14.19,5.986c0.781,2.871-0.531,6.223-3.195,7.709c-2.551,1.688-6.472,0.648-7.508-2.373
			c-0.05-0.1-0.087-0.172-0.11-0.223c0.023,0.053,0.06,0.125,0.108,0.225c0.979,3.033,4.939,4.186,7.592,2.51
			c2.752-1.461,4.22-4.885,3.479-7.938c-1.304-6.287-9.211-9.893-14.955-6.768c-5.855,2.439-9.741,8.971-8.908,15.443
			c0.929,6.34,4.764,12.143,10.353,15.477c11.725,6.91,27.005,0.84,34.343-9.676C509.896,743.754,509.061,728.131,502.372,717.127z"
			/>
	</g>
	<path d="M337.152,168.942c0.247,20.569,27.183,33.108,27.777,55.434c1.763-4.91,2.3-11.403,6.413-14.591
		c4.153,14.504,0.683,32.891,1.008,48.335c0.465-5.932,4.301-11.435,7.922-15.255c1.661,13.902,0.335,31.134,8.774,43.327
		l0.246,0.317c-13.041-9.639-33.375-31.533-41.039-45.339C337.125,220.933,329.491,193.41,337.152,168.942z"/>
	<path d="M301.014,260.525c14.826-1.135,25.575,17.462,41.689,16.466c-3.425,1.583-8.065,2.385-10.099,5.549
		c10.708,2.065,23.727-1.606,34.87-2.357c-4.241,0.714-7.96,3.827-10.48,6.678c10.116,0.31,22.441-1.745,31.758,3.555l0.244,0.156
		c-7.773-8.775-24.835-22.022-35.264-26.66C338.449,257.19,318.144,253.446,301.014,260.525z"/>
	<g>
		<path d="M323.081,625.625c-5.877,0.475-11.907,2.547-17.829,3.721c-1.802,0.354-3.611,0.607-5.404,0.795
			c-0.597,0.064-1.202,0.123-1.804,0.25c0.56,0.223,1.113,0.494,1.673,0.717c1.674,0.662,3.356,1.379,4.997,2.203
			c5.397,2.703,10.661,6.299,16.2,8.324c5.609,2.051,11.316,2.119,17.357-0.248c1.806-0.705,3.623-1.555,5.413-2.598
			c0.375-0.219,1.028-0.604,1.538-1.016c-0.01-0.004-0.021-0.004-0.029-0.012c-0.058-0.018-1.4-1.023-3.741-1.793
			c-2.325-0.809-5.708-1.053-9.08-1.065c-3.366,0.08-6.806,0.318-9.35-0.019c-2.581-0.25-4.061-1.236-4.045-1.221
			c-0.011-0.012,1.52,0.859,4.07,0.937c2.533,0.158,5.872-0.297,9.285-0.615c3.409-0.215,6.916-0.217,9.545,0.496
			c1.679,0.432,2.93,1.004,3.631,1.367c-0.389-0.547-0.936-1.117-1.232-1.424c-1.442-1.484-2.974-2.785-4.527-3.945
			C334.555,626.596,329.033,625.139,323.081,625.625z"/>
		<path d="M352.528,607.393c-1.569-3.957-4.272-7.684-6.333-11.525c-0.626-1.172-1.182-2.365-1.69-3.564
			c-0.17-0.4-0.34-0.805-0.552-1.193c-0.037,0.434-0.109,0.873-0.145,1.307c-0.102,1.297-0.244,2.609-0.466,3.916
			c-0.728,4.299-2.099,8.691-2.329,12.943c-0.232,4.309,0.928,8.264,3.837,11.938c0.867,1.098,1.84,2.174,2.938,3.188
			c0.23,0.213,0.635,0.584,1.025,0.848c0.001-0.01,0-0.014,0.001-0.022c0.004-0.045,0.412-1.184,0.449-2.961
			c0.069-1.779-0.477-4.166-1.18-6.498c-0.768-2.307-1.656-4.633-1.962-6.461c-0.369-1.834-0.003-3.065-0.01-3.049
			c0.006-0.012-0.274,1.23,0.212,3.008c0.423,1.781,1.444,3.992,2.383,6.281c0.869,2.309,1.61,4.731,1.673,6.697
			c0.058,1.25-0.072,2.236-0.176,2.795c0.294-0.385,0.573-0.883,0.723-1.152c0.721-1.309,1.294-2.641,1.768-3.957
			C354.282,615.521,354.121,611.4,352.528,607.393z"/>
		<g>
			<g>
				<path d="M262.388,564.911c-0.772-0.255-1.421-0.388-1.451-0.299c-0.03,0.092,0.566,0.379,1.333,0.643
					c66.482,22.261,113.925,89.3,113.001,158.849c0.273,1.635,1.102,1.404,1.502,1.455c0.398-0.053,1.238,0.19,1.426-1.479
					C378.239,653.281,329.259,586.361,262.388,564.911z"/>
				<path d="M236.028,548.94c-7.132,0.42-14.211,3.199-20.881,5.24c-2.039,0.672-4.073,1.226-6.084,1.702
					c-0.669,0.16-1.344,0.317-2.004,0.547l2.005,0.597c1.994,0.532,3.987,1.123,5.924,1.84c6.388,2.553,12.318,6.414,18.23,8.815
					c6.007,2.469,11.979,2.762,18.964,0.905c2.094-0.576,4.278-1.354,6.463-2.175c0.458-0.179,1.267-0.5,1.927-0.87l-0.031-0.015
					c-0.068-0.018-1.343-1.513-3.881-2.772c-2.534-1.225-6.34-2.176-10.225-2.392c-3.857-0.263-7.783-0.128-10.671-0.549
					c-2.911-0.406-4.602-1.488-4.591-1.465c-0.005-0.019,1.741,0.933,4.63,1.13c2.881,0.223,6.721-0.188,10.679-0.188
					c3.97-0.042,7.998,0.634,10.925,1.807c1.863,0.758,3.158,1.732,3.885,2.276c-0.33-0.71-0.841-1.48-1.124-1.895
					c-1.348-2.059-2.945-3.744-4.601-5.349C250.032,550.713,243.211,548.55,236.028,548.94z"/>
				<path d="M271.383,538.241c-3.668-5.996-9.679-11.291-15.043-16.626c-1.633-1.614-3.186-3.294-4.691-4.989
					c-0.504-0.559-1.009-1.152-1.595-1.667l0.408,2.022c0.462,2.006,0.846,4.041,1.068,6.088c0.708,6.727,0.229,13.749,1.371,20.186
					c1.124,6.601,4.099,12.162,9.169,17.22c1.509,1.535,3.171,2.918,4.934,4.341c0.369,0.3,1.014,0.82,1.625,1.181v-0.034
					c-0.002-0.068,0.507-1.838,0.342-4.568c-0.1-2.762-1.334-6.279-2.954-9.725c-1.696-3.427-3.744-6.863-4.815-9.532
					c-1.167-2.713-0.977-4.668-0.981-4.648c0.003-0.014-0.035,1.942,1.302,4.54c1.251,2.567,3.47,5.848,5.442,9.208
					c1.889,3.353,3.398,7.004,3.711,10.018c0.237,1.903,0.13,3.412,0.027,4.274c0.41-0.613,0.787-1.394,0.988-1.821
					c0.976-2.058,1.727-4.138,2.318-6.188C275.968,550.719,275.159,544.178,271.383,538.241z"/>
				<path d="M245.546,574.045c-4.674,4.326-8.241,10.027-11.958,15.25c-1.128,1.578-2.285,3.08-3.429,4.523l-1.111,1.5l1.504-0.609
					c1.484-0.633,3.046-1.316,4.623-1.727c5.214-1.422,10.917-1.771,16.313-3.246c5.49-1.568,10.464-4.57,15.053-9.984
					c1.367-1.619,2.711-3.371,3.957-5.287c0.26-0.398,0.716-1.104,1.023-1.755l-0.034,0.007c-0.062,0.008-1.828-0.271-4.389,0.205
					c-2.558,0.404-5.789,1.973-8.813,3.941c-2.975,2.039-5.763,4.158-8.072,5.504c-2.284,1.391-3.938,1.447-3.924,1.451
					c-0.01-0.002,1.635-0.191,3.807-1.721c2.213-1.481,4.822-3.791,7.715-6.059c2.932-2.174,6.19-4.141,8.99-4.772
					c1.783-0.457,3.26-0.545,4.105-0.553c-0.631-0.328-1.424-0.598-1.856-0.74c-2.096-0.667-4.14-1.23-6.204-1.404
					C256.02,567.725,250.226,569.851,245.546,574.045z"/>
			</g>
		</g>
	</g>
	<g>
		<g>
			<path d="M286.213,668.93c-0.477-0.008-0.862,0.033-0.863,0.088c0,0.057,0.383,0.111,0.857,0.125
				c41.027,0.742,79.297,29.826,91.008,68.813c0.44,0.865,0.862,0.59,1.094,0.547c0.212-0.098,0.725-0.111,0.536-1.076
				C366.423,697.896,327.314,669.15,286.213,668.93z"/>
			<path d="M268.69,664.648c-3.908,1.488-7.371,4.285-10.736,6.596c-1.02,0.732-2.059,1.398-3.097,2.019l-1.023,0.658l1.225-0.021
				c1.206-0.051,2.423-0.072,3.63-0.012c4.016,0.301,8.004,1.414,11.727,1.715c3.787,0.322,7.173-0.564,10.746-2.828
				c1.067-0.688,2.15-1.51,3.226-2.35c0.224-0.18,0.618-0.502,0.922-0.824l-0.021-0.006c-0.04,0.006-1.015-0.605-2.653-0.865
				c-1.63-0.238-3.922-0.096-6.128,0.463c-2.199,0.533-4.368,1.299-6.053,1.572c-1.698,0.283-2.832-0.023-2.821-0.014
				c-0.007-0.01,1.136,0.217,2.783-0.182c1.647-0.381,3.718-1.285,5.928-1.98c2.209-0.723,4.577-1.053,6.417-0.914
				c1.174,0.098,2.068,0.414,2.569,0.59c-0.309-0.34-0.73-0.68-0.96-0.861c-1.115-0.912-2.303-1.574-3.509-2.178
				C276.819,663.176,272.631,663.168,268.69,664.648z"/>
			<path d="M286.546,652.459c-3.102-2.703-7.389-4.6-11.32-6.637l-3.497-1.963l-1.183-0.648l0.584,1.06
				c0.61,1.037,1.183,2.106,1.666,3.207c1.578,3.633,2.545,7.639,4.314,11.027c1.788,3.49,4.426,6.07,8.146,8.004
				c1.112,0.59,2.283,1.068,3.517,1.555c0.257,0.103,0.711,0.277,1.115,0.375l-0.007-0.02c-0.014-0.039-0.04-1.117-0.612-2.611
				c-0.541-1.523-1.849-3.269-3.358-4.908c-1.549-1.617-3.296-3.174-4.363-4.477c-1.128-1.311-1.366-2.434-1.364-2.42
				c-0.002-0.012,0.32,1.088,1.525,2.305c1.148,1.211,2.964,2.654,4.656,4.184c1.644,1.541,3.128,3.313,3.833,4.941
				c0.466,1.02,0.671,1.881,0.765,2.381c0.121-0.416,0.195-0.918,0.231-1.19c0.184-1.322,0.237-2.615,0.206-3.865
				C291.3,658.619,289.697,655.111,286.546,652.459z"/>
			<path d="M278.417,676.99c-1.848,3.234-2.838,7.047-3.995,10.615l-1.118,3.129l-0.357,1.033l0.733-0.605
				c0.717-0.615,1.469-1.273,2.277-1.777c2.66-1.711,5.784-2.908,8.537-4.68c2.789-1.84,5.037-4.391,6.648-8.219
				c0.478-1.145,0.92-2.359,1.279-3.648c0.075-0.268,0.205-0.74,0.263-1.16l-0.018,0.01c-0.033,0.016-1.069,0.172-2.414,0.887
				c-1.357,0.678-2.886,2.117-4.227,3.75c-1.302,1.662-2.486,3.334-3.539,4.49c-1.03,1.178-1.943,1.502-1.935,1.5
				c-0.005,0.002,0.878-0.397,1.822-1.629c0.974-1.215,2.025-2.965,3.242-4.738c1.255-1.731,2.728-3.402,4.18-4.244
				c0.916-0.57,1.725-0.877,2.196-1.029c-0.411-0.072-0.902-0.084-1.167-0.088c-1.288-0.002-2.528,0.039-3.711,0.305
				C283.152,671.621,280.292,673.824,278.417,676.99z"/>
		</g>
	</g>
	<g>
		<g>
			<g>
				<path d="M321.682,528.203c0.154-0.316,0.249-0.59,0.214-0.607c-0.035-0.021-0.191,0.222-0.349,0.538
					c-14.447,26.884-9.795,62.618,11.567,84.845c0.546,0.482,0.727,0.16,0.862,0.063c0.105-0.131,0.423-0.293,0.026-0.9
					C312.734,590.543,307.585,555.219,321.682,528.203z"/>
				<path d="M331.335,519.94c1.065-2.59,1.701-5.609,2.986-8.28c0.367-0.83,0.786-1.64,1.229-2.431l0.427-0.814l-0.765,0.478
					l-2.324,1.44c-2.731,1.41-5.664,2.83-7.928,4.952c-2.446,2.018-3.625,4.932-3.818,8.185c-0.043,0.98-0.054,1.958,0.173,3.007
					c0.04,0.218,0.116,0.595,0.226,0.904l0.007-0.013c0.038-0.014,0.65-0.53,1.439-1.471c0.83-0.916,1.601-2.399,2.28-3.943
					c0.586-1.591,1.286-3.167,2.088-4.185c0.744-1.074,1.527-1.487,1.518-1.487c0.008,0-0.742,0.462-1.399,1.56
					c-0.715,1.055-1.305,2.625-1.792,4.275c-0.58,1.598-1.256,3.174-2.094,4.229c-0.51,0.686-0.918,1.21-1.205,1.476
					c0.311-0.098,0.654-0.263,0.839-0.353c0.864-0.451,1.792-0.878,2.604-1.353C328.59,524.555,330.086,522.451,331.335,519.94z"/>
				<path d="M332.132,533.521c2.289-0.729,4.744-1.749,7.026-2.37c0.702-0.183,1.41-0.316,2.11-0.413l0.7-0.11l-0.764-0.276
					l-2.288-0.8c-2.528-0.965-5.131-2.258-7.741-2.799c-2.588-0.516-5.331-0.199-7.655,1.583c-0.699,0.531-1.392,1.137-2.052,1.835
					c-0.138,0.146-0.379,0.404-0.554,0.655l0.015,0.001c0.028,0.002,0.754,0.254,1.887,0.29c1.13,0.054,2.642-0.247,4.086-0.591
					c1.417-0.397,2.846-0.795,4.037-0.807c1.164-0.064,1.911,0.261,1.903,0.255c0.006,0.006-0.751-0.271-1.883-0.136
					c-1.172,0.08-2.499,0.581-3.917,1.076c-1.43,0.445-2.963,0.864-4.217,0.899c-0.798,0.032-1.43-0.043-1.789-0.105
					c0.244,0.186,0.562,0.356,0.734,0.45c0.837,0.443,1.69,0.793,2.531,1.088C327.116,534.223,329.72,534.2,332.132,533.521z"/>
				<path d="M319.915,519.883c-0.878-2.636-2.549-5.287-3.489-7.982c-0.29-0.822-0.52-1.676-0.71-2.543l-0.217-0.865l-0.274,0.955
					l-0.78,2.852c-0.764,3.253-2.05,6.463-2.177,9.562c-0.099,3.159,0.792,5.797,2.869,7.921c0.62,0.636,1.31,1.237,2.082,1.78
					c0.162,0.112,0.446,0.31,0.715,0.439l-0.001-0.014c0-0.03,0.194-0.795,0.121-1.955c-0.052-1.162-0.52-2.695-1.056-4.232
					c-0.553-1.497-1.264-3.108-1.374-4.327c-0.193-1.243,0.105-2.132,0.099-2.122c0.004-0.007-0.234,0.885,0.038,2.08
					c0.196,1.184,0.955,2.686,1.628,4.167c0.641,1.508,1.233,3.052,1.381,4.322c0.108,0.805,0.084,1.445,0.051,1.812
					c0.167-0.271,0.317-0.613,0.396-0.8c0.386-0.901,0.677-1.808,0.911-2.702C320.819,525.19,320.849,522.586,319.915,519.883z"/>
			</g>
		</g>
		<path d="M306.042,546.083c-2.728-2.462-6.243-4.313-9.305-6.499c-0.931-0.665-1.819-1.381-2.67-2.114
			c-0.284-0.242-0.57-0.491-0.883-0.711c0.138,0.351,0.251,0.717,0.388,1.066c0.416,1.043,0.808,2.113,1.137,3.208
			c1.08,3.603,1.696,7.528,3.143,10.907c1.467,3.421,3.876,6.039,7.53,7.77c1.091,0.518,2.254,0.979,3.491,1.344
			c0.258,0.079,0.713,0.209,1.118,0.265c-0.002-0.006-0.007-0.011-0.008-0.019c-0.014-0.034-0.135-1.071-0.785-2.463
			c-0.626-1.4-1.96-3.039-3.396-4.577c-1.475-1.492-3.05-2.951-3.987-4.249c-0.987-1.278-1.173-2.37-1.174-2.357
			c0.001-0.01,0.259,1.057,1.313,2.247c1.01,1.217,2.645,2.537,4.246,3.951c1.555,1.455,3.053,3.045,3.854,4.542
			c0.522,0.945,0.797,1.758,0.931,2.23c0.083-0.411,0.107-0.9,0.12-1.167c0.059-1.287-0.008-2.538-0.144-3.738
			C310.505,551.702,308.806,548.575,306.042,546.083z"/>
		<path d="M326.897,551.654c1.125-2.404,1.66-5.223,2.523-7.797c0.263-0.786,0.567-1.547,0.895-2.29
			c0.108-0.248,0.22-0.5,0.305-0.761c-0.212,0.168-0.443,0.324-0.654,0.494c-0.633,0.506-1.289,1.003-1.977,1.461
			c-2.261,1.505-4.84,2.762-6.869,4.476c-2.052,1.733-3.351,3.949-3.775,6.838c-0.127,0.864-0.201,1.764-0.192,2.696
			c0,0.196,0.007,0.536,0.054,0.828c0.004-0.004,0.005-0.007,0.011-0.01c0.021-0.018,0.711-0.318,1.535-1.062
			c0.836-0.728,1.686-1.996,2.443-3.312c0.719-1.335,1.395-2.729,2.094-3.65c0.674-0.951,1.39-1.31,1.38-1.307
			c0.006-0.003-0.676,0.401-1.274,1.381c-0.627,0.954-1.194,2.36-1.833,3.765c-0.676,1.382-1.459,2.752-2.322,3.621
			c-0.543,0.562-1.047,0.921-1.345,1.114c0.3-0.031,0.645-0.116,0.831-0.164c0.903-0.232,1.752-0.542,2.551-0.889
			C323.957,555.921,325.757,554.089,326.897,551.654z"/>
	</g>
	<g>
		<g>
			<g>
				<path d="M259.464,430.79c0.402,2.043-0.852,4.143-2.809,4.623c-1.955,0.486-4.024-0.769-4.624-2.798
					c-0.601-2.028,0.646-4.104,2.795-4.635C256.975,427.458,259.051,428.69,259.464,430.79z"/>
			</g>
			<g>
				<path d="M280.341,429.337c-0.066,1.858-1.565,3.377-3.342,3.393c-1.778,0.014-3.293-1.489-3.393-3.344
					c-0.1-1.862,1.39-3.379,3.332-3.393C278.882,425.983,280.408,427.479,280.341,429.337z"/>
			</g>
			<g>
				<path d="M301.043,432.754c-0.433,1.577-2.032,2.572-3.568,2.224c-1.535-0.353-2.522-1.939-2.211-3.547
					c0.313-1.607,1.904-2.605,3.562-2.225C300.482,429.587,301.477,431.175,301.043,432.754z"/>
			</g>
			<g>
				<path d="M320.494,440.764c-0.659,1.254-2.225,1.8-3.492,1.208c-1.264-0.596-1.805-2.143-1.215-3.458
					c0.59-1.313,2.155-1.864,3.498-1.23C320.627,437.917,321.176,439.464,320.494,440.764z"/>
			</g>
			<g>
				<path d="M337.958,452.572c-0.78,0.978-2.221,1.172-3.222,0.441c-0.996-0.734-1.198-2.161-0.455-3.188
					c0.744-1.028,2.191-1.236,3.235-0.463C338.563,450.132,338.763,451.566,337.958,452.572z"/>
			</g>
			<g>
				<path d="M353.067,467.338c-0.832,0.742-2.118,0.699-2.871-0.095c-0.753-0.795-0.711-2.066,0.093-2.839
					c0.805-0.773,2.089-0.732,2.87,0.094C353.939,465.323,353.899,466.595,353.067,467.338z"/>
			</g>
			<g>
				<path d="M365.644,484.356c-0.821,0.537-1.928,0.322-2.472-0.478c-0.545-0.8-0.332-1.902,0.474-2.463
					c0.805-0.561,1.913-0.349,2.473,0.476C366.678,482.716,366.467,483.818,365.644,484.356z"/>
			</g>
			<g>
				<path d="M375.664,503.025c-0.782,0.37-1.713,0.042-2.081-0.727c-0.368-0.771-0.04-1.708,0.733-2.095
					c0.772-0.389,1.705-0.063,2.08,0.727C376.775,501.717,376.445,502.657,375.664,503.025z"/>
			</g>
			<g>
				<path d="M383.112,522.889c-0.724,0.231-1.492-0.164-1.712-0.884c-0.207-0.723,0.145-1.488,0.869-1.736
					c0.713-0.243,1.534,0.135,1.746,0.875C384.241,521.876,383.837,522.659,383.112,522.889z"/>
			</g>
			<g>
				<path d="M387.923,543.577c-0.656,0.12-1.298-0.311-1.429-0.961c-0.133-0.652,0.292-1.284,0.948-1.414
					c0.657-0.13,1.296,0.298,1.43,0.963C389.006,542.823,388.581,543.457,387.923,543.577z"/>
			</g>
			<g>
				<path d="M389.989,564.734c-0.587,0.031-1.088-0.418-1.118-1.003c-0.028-0.583,0.424-1.088,1.01-1.125
					c0.589-0.039,1.089,0.408,1.118,1.001C391.029,564.2,390.578,564.705,389.989,564.734z"/>
			</g>
			<g>
				<path d="M389.39,586.002c-0.515-0.041-0.912-0.49-0.886-1.004c0.027-0.516,0.468-0.902,0.985-0.869
					c0.518,0.033,0.913,0.484,0.886,1.006C390.348,585.652,389.907,586.043,389.39,586.002z"/>
			</g>
		</g>
	</g>
	<g>
		<g>
			<g>
				<path d="M623.374,635.402c1.202-1.744,3.596-2.111,5.354-0.818c1.758,1.287,2.127,3.686,0.821,5.348
					c-1.304,1.664-3.707,2.027-5.361,0.816C622.537,639.537,622.173,637.145,623.374,635.402z"/>
			</g>
			<g>
				<path d="M605.491,624.523c0.802-1.68,2.843-2.356,4.567-1.506c1.742,0.815,2.318,2.979,1.426,4.586
					c-0.918,1.652-2.877,2.16-4.516,1.4C605.351,628.211,604.693,626.205,605.491,624.523z"/>
			</g>
			<g>
				<path d="M586.004,616.76c0.43-1.58,2.096-2.494,3.722-2.039c1.623,0.463,2.471,2.234,1.95,3.766
					c-0.532,1.57-2.157,2.346-3.685,1.9C586.462,619.965,585.573,618.342,586.004,616.76z"/>
			</g>
			<g>
				<path d="M565.371,612.73c0.105-1.438,1.389-2.508,2.866-2.387c1.483,0.082,2.51,1.504,2.327,2.906
					c-0.193,1.453-1.459,2.365-2.857,2.281C566.308,615.422,565.268,614.17,565.371,612.73z"/>
			</g>
			<g>
				<path d="M544.31,612.773c-0.153-1.26,0.765-2.396,2.058-2.541c1.291-0.162,2.416,0.781,2.505,2.063
					c0.092,1.25-0.835,2.346-2.063,2.506C545.575,614.94,544.461,614.031,544.31,612.773z"/>
			</g>
			<g>
				<path d="M523.598,616.848c-0.34-1.063,0.268-2.193,1.357-2.527c1.09-0.33,2.213,0.271,2.508,1.346
					c0.294,1.078-0.315,2.209-1.362,2.529C525.055,618.516,523.935,617.912,523.598,616.848z"/>
			</g>
			<g>
				<path d="M503.92,624.598c-0.454-0.869-0.1-1.941,0.79-2.395c0.891-0.449,1.958-0.1,2.385,0.785
					c0.423,0.885,0.068,1.959-0.792,2.397C505.441,625.822,504.376,625.471,503.92,624.598z"/>
			</g>
			<g>
				<path d="M485.753,635.49c-0.514-0.697-0.358-1.68,0.349-2.195c0.706-0.516,1.684-0.361,2.178,0.348
					c0.495,0.707,0.338,1.691-0.353,2.193C487.239,636.342,486.265,636.184,485.753,635.49z"/>
			</g>
			<g>
				<path d="M469.352,648.943c-0.534-0.541-0.521-1.422,0.024-1.959c0.548-0.543,1.407-0.535,1.935,0.022
					c0.517,0.549,0.506,1.434-0.03,1.961C470.746,649.498,469.882,649.488,469.352,648.943z"/>
			</g>
			<g>
				<path d="M454.81,664.434c-0.528-0.422-0.599-1.174-0.168-1.695c0.432-0.516,1.2-0.594,1.723-0.168
					c0.512,0.428,0.586,1.184,0.163,1.693C456.102,664.775,455.329,664.844,454.81,664.434z"/>
			</g>
			<g>
				<path d="M442.251,681.596c-0.501-0.313-0.649-0.973-0.333-1.473c0.318-0.502,0.977-0.65,1.471-0.332
					c0.495,0.32,0.645,0.979,0.33,1.477C443.407,681.762,442.749,681.908,442.251,681.596z"/>
			</g>
			<g>
				<path d="M431.502,699.967c-0.465-0.225-0.647-0.789-0.408-1.252c0.244-0.459,0.811-0.643,1.275-0.408
					c0.462,0.234,0.645,0.793,0.406,1.252C432.537,700.016,431.967,700.199,431.502,699.967z"/>
			</g>
		</g>
	</g>
	<g>
		<g>
			<g>
				<path d="M680.051,542.211c-0.648,0.695-1.768,0.807-2.47,0.22c-0.702-0.581-0.802-1.686-0.226-2.467
					c0.578-0.779,1.683-0.886,2.472-0.23C680.613,540.391,680.723,541.49,680.051,542.211z"/>
			</g>
			<g>
				<path d="M686.025,549.709c-0.728,0.44-1.689,0.254-2.145-0.413c-0.454-0.669-0.266-1.628,0.414-2.142
					c0.678-0.518,1.64-0.336,2.145,0.408C686.941,548.306,686.755,549.27,686.025,549.709z"/>
			</g>
			<g>
				<path d="M689.743,558.578c-0.715,0.202-1.494-0.186-1.72-0.866c-0.232-0.679,0.15-1.445,0.854-1.711
					c0.704-0.265,1.474,0.118,1.725,0.861C690.852,557.606,690.475,558.372,689.743,558.578z"/>
			</g>
			<g>
				<path d="M691.094,568.125c-0.648,0.021-1.229-0.474-1.282-1.111c-0.052-0.636,0.44-1.206,1.096-1.274
					c0.657-0.067,1.235,0.428,1.291,1.109C692.252,567.528,691.768,568.102,691.094,568.125z"/>
			</g>
			<g>
				<path d="M690.29,577.756c-0.572-0.1-0.974-0.637-0.899-1.197c0.074-0.563,0.604-0.959,1.179-0.889
					c0.581,0.07,0.982,0.604,0.904,1.197C691.391,577.457,690.862,577.856,690.29,577.756z"/>
			</g>
			<g>
				<path d="M687.58,587.053c-0.478-0.18-0.734-0.711-0.568-1.186c0.162-0.473,0.69-0.727,1.175-0.563
					c0.485,0.158,0.74,0.688,0.568,1.182C688.585,586.979,688.059,587.232,687.58,587.053z"/>
			</g>
			<g>
				<path d="M683.209,595.709c-0.383-0.23-0.518-0.728-0.298-1.111c0.222-0.383,0.719-0.518,1.112-0.297
					c0.396,0.217,0.528,0.713,0.299,1.111C684.094,595.809,683.595,595.942,683.209,595.709z"/>
			</g>
			<g>
				<path d="M677.365,603.463c-0.296-0.26-0.333-0.709-0.076-1.004c0.259-0.293,0.713-0.326,1.02-0.076
					c0.307,0.252,0.34,0.701,0.074,1.004C678.118,603.692,677.664,603.725,677.365,603.463z"/>
			</g>
			<g>
				<path d="M670.223,610.055c-0.218-0.273-0.17-0.664,0.105-0.873c0.276-0.199,0.653-0.188,0.881,0.086
					c0.218,0.262,0.197,0.684-0.087,0.895C670.84,610.377,670.438,610.328,670.223,610.055z"/>
			</g>
			<g>
				<path d="M661.967,615.209c-0.141-0.271-0.039-0.613,0.227-0.76c0.263-0.15,0.597-0.053,0.746,0.219
					c0.146,0.268,0.045,0.607-0.227,0.76C662.441,615.578,662.11,615.482,661.967,615.209z"/>
			</g>
			<g>
				<path d="M652.859,618.652c-0.076-0.256,0.073-0.527,0.326-0.604c0.257-0.076,0.53,0.072,0.611,0.328
					c0.08,0.258-0.065,0.527-0.326,0.605C653.21,619.061,652.935,618.912,652.859,618.652z"/>
			</g>
			<g>
				<path d="M643.262,620.361c-0.023-0.234,0.15-0.453,0.381-0.484c0.234-0.033,0.445,0.133,0.471,0.369
					c0.028,0.236-0.142,0.455-0.382,0.488C643.495,620.764,643.284,620.6,643.262,620.361z"/>
			</g>
		</g>
	</g>
	<g>
		<g>
			<g>
				<path d="M489.98,114.609c-0.897-1.423-0.394-3.397,1.239-4.264c1.681-0.806,3.568-0.176,4.202,1.4
					c0.639,1.574,0.027,3.403-1.357,4.064C492.69,116.523,490.894,116.067,489.98,114.609z"/>
			</g>
			<g>
				<path d="M476.95,125.193c-1.099-1.017-1.121-2.747-0.048-3.868c1.088-1.113,2.879-1.05,3.88,0.039
					c1.02,1.112,0.963,2.763-0.042,3.786C479.744,126.191,478.049,126.209,476.95,125.193z"/>
			</g>
			<g>
				<path d="M466.245,138.241c-1.09-0.74-1.38-2.247-0.58-3.331c0.79-1.092,2.281-1.343,3.341-0.558
					c1.055,0.783,1.305,2.267,0.553,3.312C468.794,138.7,467.333,138.976,466.245,138.241z"/>
			</g>
			<g>
				<path d="M457.256,152.583c-1.011-0.542-1.426-1.84-0.835-2.857c0.578-1.022,1.863-1.387,2.868-0.813
					c1.007,0.574,1.365,1.844,0.808,2.838C459.519,152.738,458.29,153.135,457.256,152.583z"/>
			</g>
			<g>
				<path d="M449.595,167.721c-0.942-0.408-1.355-1.496-0.928-2.434c0.423-0.938,1.521-1.354,2.447-0.931
					c0.928,0.423,1.343,1.513,0.926,2.433C451.624,167.709,450.523,168.124,449.595,167.721z"/>
			</g>
			<g>
				<path d="M443.097,183.428c-0.844-0.298-1.28-1.232-0.974-2.082c0.307-0.85,1.237-1.286,2.078-0.973
					c0.842,0.311,1.276,1.244,0.974,2.083C444.875,183.294,443.944,183.729,443.097,183.428z"/>
			</g>
			<g>
				<path d="M437.607,199.544c-0.758-0.217-1.201-1.012-0.984-1.777c0.233-0.759,1.032-1.19,1.789-0.966
					c0.756,0.228,1.183,1.019,0.955,1.77C439.151,199.325,438.368,199.763,437.607,199.544z"/>
			</g>
			<g>
				<path d="M433.096,215.987c-0.678-0.152-1.1-0.827-0.945-1.507c0.156-0.68,0.832-1.105,1.508-0.945
					c0.676,0.159,1.098,0.834,0.944,1.508C434.449,215.717,433.773,216.139,433.096,215.987z"/>
			</g>
			<g>
				<path d="M429.514,232.678c-0.607-0.1-1.009-0.671-0.9-1.275c0.107-0.605,0.684-1.009,1.284-0.906
					c0.605,0.106,1.005,0.675,0.897,1.275C430.691,232.372,430.113,232.777,429.514,232.678z"/>
			</g>
			<g>
				<path d="M426.931,249.57c-0.534-0.056-0.925-0.536-0.868-1.075c0.055-0.537,0.532-0.923,1.067-0.862
					c0.534,0.061,0.923,0.542,0.868,1.076C427.943,249.24,427.465,249.628,426.931,249.57z"/>
			</g>
			<g>
				<path d="M425.324,266.6c-0.472-0.021-0.838-0.424-0.813-0.897c0.022-0.476,0.427-0.84,0.899-0.815
					c0.473,0.025,0.837,0.427,0.813,0.898C426.2,266.257,425.797,266.622,425.324,266.6z"/>
			</g>
			<g>
				<path d="M424.75,283.71c-0.417,0.007-0.754-0.325-0.758-0.743c0-0.418,0.335-0.76,0.753-0.765
					c0.417-0.006,0.755,0.328,0.757,0.743C425.503,283.359,425.166,283.701,424.75,283.71z"/>
			</g>
		</g>
	</g>
	<g>
		<path d="M248.236,481.539c2.871-0.522,4.777-3.268,4.258-6.14c-0.521-2.871-3.27-4.778-6.14-4.259
			c-2.873,0.52-4.777,3.272-4.259,6.141C242.615,480.154,245.366,482.06,248.236,481.539z"/>
		<path d="M268.504,474.454c-1.214-5.514-4.875-10.469-9.887-13.071c-4.843-2.74-11.4-3.125-16.023,0.404
			c-4.496,3.17-7.318,9.701-4.458,14.892c1.351,2.483,3.825,4.353,6.616,4.84c2.799,0.526,5.902-0.868,7.176-3.441
			c0.523-0.925,0.548-1.821,0.476-1.82c-0.158-0.038-0.372,0.76-0.87,1.605c-1.215,2.389-4.116,3.63-6.68,3.118
			c-2.62-0.486-4.919-2.279-6.151-4.607c-2.617-4.829,0.109-10.967,4.377-13.9c4.396-3.252,10.433-2.829,15.04-0.177
			c4.714,2.516,8.099,7.239,9.175,12.415c2.007,10.56-5.094,21.535-14.63,25.878c-9.744,4.802-21.508,2.099-30.173-3.949
			c-8.81-6.037-14.761-15.982-15.979-26.527c-1.27-10.566,2.377-21.34,8.048-30.28c7.66-12.08,20.376-20.447,34.185-23.414
			l-7.617-1.236c-11.845,4.286-22.306,12.377-28.938,23.132c-5.842,9.47-9.551,20.773-8.079,32.1
			c1.435,11.217,7.876,21.644,17.236,27.897c9.127,6.245,21.683,8.979,32.021,3.748C263.438,497.25,270.744,485.807,268.504,474.454
			z"/>
	</g>
	<g>
		<g>
			<path d="M563.254,305.923c6.879,5.065,15.769,1.029,18.171-5.243c2.77-6.091,1.956-12.727-1.03-17.115
				c-6.365-8.769-15.711-10.426-21.488-10.47c-12.316,0.621-15.537,4.241-16.928,2.903c-1.339-0.719,0.209-3.546-1.146-3.801
				c-0.781-0.248-7.955,2.035-14.414,16.793c-5.857,14.44-3.421,37.287,17.315,51.139c9.824,6.096,23.06,10.402,38.133,8.48
				c14.754-1.82,31.634-10.345,41.135-27.481c9.891-16.472,14.703-40.099,6.076-63.873c-8.003-23.818-32.267-44.159-64.441-51.563
				c-31.522-7.509-73.165,0.431-101.843,32.53c-28.113,31.684-45.909,82.344-33.527,136.583
				c-4.036-20.978-7.162-58.229,11.457-98.268c9.405-19.501,23.152-40.385,44.347-53.735c20.934-13.552,48.744-19.657,75.801-13.896
				c26.687,5.862,54.029,22.837,62.622,49.993c4.46,13.355,4.688,28.347,0.183,42.083c-4.766,13.806-13.268,26.422-25.915,32.25
				c-12.603,6.115-28.296,5.881-40.986-1.145c-12.725-6.245-19.665-20.972-15.933-34.912c1.84-6.943,5.808-13.291,11.803-16.228
				c5.954-3.348,13.737-3.3,19.999,0.178c6.385,2.824,9.772,10.502,7.659,17.486C578.898,305.989,570.166,310.329,563.254,305.923z"
				/>
		</g>
	</g>
</g>

</svg>
